{"glyphs":{"0":{"ha":856,"x_min":29,"x_max":826,"o":"m 29 506 q 113 871 29 731 q 426 1043 215 1043 q 742 872 639 1043 q 826 506 826 732 q 742 140 826 279 q 426 -31 639 -31 q 114 140 217 -31 q 29 506 29 281 m 428 831 q 286 711 329 831 q 257 508 257 629 q 286 304 257 386 q 428 183 328 183 q 569 304 528 183 q 599 508 599 386 q 428 831 599 831 z "},"1":{"ha":856,"x_min":90,"x_max":776,"o":"m 554 214 l 674 214 q 776 107 776 214 q 674 0 776 0 l 193 0 q 90 107 90 0 q 193 214 90 214 l 321 214 l 321 810 q 213 817 235 810 q 157 896 157 832 q 188 956 157 929 q 458 1026 271 1026 q 508 1022 493 1026 q 551 947 543 1013 q 554 850 554 931 l 554 214 z "},"2":{"ha":856,"x_min":69,"x_max":782,"o":"m 782 107 q 618 0 782 0 l 208 0 q 69 107 69 0 q 119 207 69 150 q 285 390 203 299 q 444 581 385 501 q 511 731 511 669 q 488 799 511 772 q 424 826 465 826 q 350 790 381 826 q 308 710 332 767 q 269 635 285 654 q 201 606 246 606 q 119 640 150 606 q 88 725 88 674 q 106 817 88 765 q 231 981 140 918 q 431 1043 322 1043 q 661 964 571 1043 q 756 742 756 881 q 629 453 756 617 q 406 214 565 372 l 618 214 q 782 107 782 214 z "},"3":{"ha":856,"x_min":64,"x_max":779,"o":"m 610 557 q 779 299 779 471 q 669 58 779 153 q 417 -31 565 -31 q 181 43 286 -31 q 64 251 64 125 q 94 326 64 292 q 165 361 125 361 q 247 315 210 361 q 313 231 279 274 q 419 185 357 185 q 508 223 474 185 q 542 315 542 261 q 496 406 542 378 q 394 435 468 422 q 299 538 299 451 q 324 608 299 585 q 394 639 344 628 q 501 743 501 664 q 418 831 501 831 q 315 797 358 831 q 256 736 313 796 q 190 703 224 703 q 122 731 150 703 q 94 800 94 760 q 121 886 94 842 q 251 1001 163 958 q 422 1043 335 1043 q 636 965 546 1043 q 726 765 726 888 q 610 557 726 642 z "},"4":{"ha":856,"x_min":32,"x_max":800,"o":"m 689 228 l 689 111 q 576 -12 689 -12 q 478 118 478 -12 l 478 228 l 176 228 q 74 260 115 228 q 32 353 32 293 q 101 544 32 433 l 336 918 q 508 1028 406 1028 q 650 954 603 1028 q 689 794 689 893 l 689 424 q 800 325 800 424 q 689 228 800 228 m 239 424 l 478 424 l 478 810 l 239 424 z "},"5":{"ha":856,"x_min":71,"x_max":779,"o":"m 375 679 q 474 692 429 692 q 697 590 611 692 q 779 356 779 494 q 670 79 779 189 q 394 -31 561 -31 q 268 -12 329 -31 q 139 53 193 10 q 71 172 71 106 q 98 245 71 215 q 167 275 125 275 q 269 232 199 275 q 392 189 339 189 q 495 234 454 189 q 536 342 536 279 q 503 445 536 406 q 408 485 471 485 q 322 467 376 485 q 238 449 268 449 q 149 549 149 449 q 156 628 149 572 l 189 892 q 232 992 199 967 q 339 1014 261 1014 l 621 1014 q 768 907 768 1014 q 629 801 768 801 l 390 801 l 375 679 z "},"6":{"ha":856,"x_min":60,"x_max":796,"o":"m 425 647 q 506 654 486 654 q 717 553 633 654 q 796 328 796 458 q 685 72 796 174 q 417 -31 574 -31 q 160 74 260 -31 q 60 336 60 178 q 297 851 60 554 q 525 1046 453 1046 q 603 1015 569 1046 q 636 939 636 983 q 583 838 636 901 q 503 749 543 793 q 425 647 464 704 m 296 325 q 333 226 296 269 q 426 183 371 183 q 519 226 482 183 q 557 325 557 269 q 520 423 557 382 q 426 464 483 464 q 333 423 369 464 q 296 325 296 382 z "},"7":{"ha":856,"x_min":69,"x_max":790,"o":"m 522 801 l 208 801 q 69 908 69 801 q 208 1014 69 1014 l 622 1014 q 790 888 790 1014 q 767 801 790 853 l 432 78 q 311 -31 382 -31 q 227 2 263 -31 q 192 83 192 35 q 222 183 192 121 l 522 801 z "},"8":{"ha":856,"x_min":60,"x_max":796,"o":"m 196 554 q 103 757 103 636 q 203 967 103 885 q 428 1043 297 1043 q 653 968 560 1043 q 753 757 753 886 q 660 554 753 635 q 796 301 796 467 q 685 58 796 153 q 428 -31 579 -31 q 171 58 276 -31 q 60 301 60 153 q 196 554 60 468 m 290 322 q 331 221 290 265 q 428 176 371 176 q 526 219 488 176 q 565 322 565 263 q 526 426 565 383 q 428 469 488 469 q 330 426 369 469 q 290 322 290 382 m 324 736 q 355 662 324 694 q 428 629 386 629 q 503 660 472 629 q 533 736 533 692 q 503 813 533 781 q 428 844 472 844 q 353 813 383 844 q 324 736 324 781 z "},"9":{"ha":856,"x_min":60,"x_max":794,"o":"m 560 690 q 522 789 560 747 q 429 831 485 831 q 336 789 374 831 q 299 690 299 747 q 336 592 299 633 q 429 550 374 550 q 522 592 485 550 q 560 690 560 633 m 431 368 q 357 361 364 361 q 143 458 228 361 q 60 682 60 551 q 170 942 60 839 q 439 1044 281 1044 q 696 942 597 1044 q 794 679 794 839 q 557 163 794 460 q 331 -32 401 -32 q 253 1 288 -32 q 219 76 219 33 q 286 192 219 117 q 431 368 338 247 z "}," ":{"ha":472,"x_min":0,"x_max":0,"o":""},"!":{"ha":422,"x_min":88,"x_max":335,"o":"m 88 96 q 124 183 88 147 q 211 219 160 219 q 299 183 263 219 q 335 96 335 147 q 299 7 335 44 q 211 -31 263 -31 q 124 7 160 -31 q 88 96 88 44 m 322 461 q 211 297 322 297 q 100 461 100 297 l 100 879 q 211 1043 100 1043 q 322 879 322 1043 l 322 461 z "},"\"":{"ha":472,"x_min":56,"x_max":417,"o":"m 282 940 q 302 984 282 967 q 350 1001 322 1001 q 397 985 378 1001 q 417 940 417 968 l 417 674 q 350 611 417 611 q 302 628 322 611 q 282 674 282 646 l 282 940 m 56 940 q 75 985 56 968 q 122 1001 94 1001 q 190 940 190 1001 l 190 674 q 122 611 190 611 q 56 674 56 611 l 56 940 z "},"#":{"ha":1021,"x_min":0,"x_max":1021,"o":"m 818 550 l 788 415 q 896 411 878 415 q 953 333 953 396 q 846 253 953 253 l 751 253 l 717 99 q 615 -14 692 -14 q 517 86 517 -14 q 547 253 517 121 l 369 253 l 335 99 q 232 -14 310 -14 q 133 86 133 -14 q 164 253 133 121 q 57 258 78 253 q 0 333 0 272 q 108 415 0 415 l 200 415 l 232 550 l 146 550 q 39 632 39 550 q 147 711 39 711 l 268 711 l 311 910 q 410 1021 335 1021 q 479 1004 450 1021 q 517 947 517 983 q 506 869 517 919 l 471 711 l 651 711 l 696 910 q 793 1021 721 1021 q 861 1004 832 1021 q 897 947 897 983 q 889 869 897 910 l 856 711 q 963 707 944 711 q 1021 632 1021 692 q 914 550 1021 550 l 818 550 m 615 550 l 435 550 l 406 415 l 585 415 l 615 550 z "},"$":{"ha":856,"x_min":67,"x_max":789,"o":"m 360 -28 q 142 33 217 -14 q 67 136 67 81 q 99 213 67 186 q 181 239 131 239 q 289 214 210 239 q 428 189 368 189 q 508 217 474 189 q 542 292 542 246 q 494 381 542 353 q 365 432 453 406 q 164 525 228 474 q 78 719 78 597 q 158 929 78 843 q 360 1035 235 1010 l 360 1107 q 417 1183 360 1183 q 464 1161 453 1183 q 474 1107 474 1146 l 474 1040 q 631 1006 567 1033 q 724 892 724 965 q 619 793 724 793 q 528 811 588 793 q 438 829 469 829 q 361 808 393 829 q 325 742 325 785 q 338 697 325 714 q 417 651 354 674 q 510 622 464 638 q 789 314 789 528 q 700 86 789 178 q 474 -22 611 -6 l 474 -117 q 417 -196 474 -196 q 360 -117 360 -196 l 360 -28 z "},"%":{"ha":997,"x_min":14,"x_max":982,"o":"m 14 800 q 77 959 14 892 q 232 1026 140 1026 q 388 960 325 1026 q 450 800 450 894 q 388 640 450 707 q 232 574 325 574 q 77 640 140 574 q 14 800 14 707 m 160 800 q 181 748 160 771 q 232 725 203 725 q 285 747 263 725 q 307 800 307 769 q 285 853 307 832 q 232 875 264 875 q 181 853 201 875 q 160 800 160 831 m 546 214 q 609 373 546 306 q 764 440 672 440 q 919 374 857 440 q 982 214 982 308 q 919 54 982 121 q 764 -12 857 -12 q 609 54 672 -12 q 546 214 546 121 m 692 214 q 713 162 692 185 q 764 139 735 139 q 817 160 796 139 q 838 214 838 182 q 817 268 838 247 q 764 289 797 289 q 713 267 733 289 q 692 214 692 244 m 242 -24 q 183 0 207 -24 q 160 58 160 24 q 194 153 160 92 l 653 954 q 753 1033 699 1033 q 838 963 838 1033 q 810 878 838 926 l 340 57 q 242 -24 294 -24 z "},"&":{"ha":976,"x_min":29,"x_max":971,"o":"m 689 85 q 368 -31 563 -31 q 131 56 228 -31 q 29 283 29 144 q 263 596 29 482 q 165 804 165 700 q 258 983 165 918 q 460 1043 342 1043 q 663 981 579 1043 q 753 794 753 911 q 581 535 753 639 l 718 371 q 810 473 774 438 q 885 508 847 508 q 947 480 922 508 q 971 413 971 451 q 843 226 971 349 q 900 157 889 172 q 931 75 931 111 q 903 7 931 35 q 835 -21 875 -21 q 689 85 781 -21 m 571 232 l 383 446 q 258 288 258 389 q 297 192 258 228 q 394 156 335 156 q 571 232 485 156 m 457 672 q 569 794 569 718 q 538 856 569 831 q 469 882 507 882 q 405 858 433 882 q 376 799 376 833 q 457 672 376 744 z "},"'":{"ha":246,"x_min":56,"x_max":190,"o":"m 56 940 q 75 985 56 968 q 122 1001 94 1001 q 190 940 190 1001 l 190 674 q 122 611 190 611 q 56 674 56 611 l 56 940 z "},"(":{"ha":463,"x_min":100,"x_max":396,"o":"m 294 464 q 346 106 294 290 q 375 10 361 58 q 396 -82 396 -57 q 308 -169 396 -169 q 200 -68 243 -169 q 100 464 100 171 q 124 728 100 599 q 242 1064 169 978 q 308 1097 269 1097 q 396 1008 396 1097 q 375 917 396 983 q 346 822 361 869 q 294 464 294 638 z "},")":{"ha":463,"x_min":65,"x_max":363,"o":"m 168 464 q 117 822 168 643 q 86 918 101 869 q 65 1008 65 989 q 154 1097 65 1097 q 262 996 218 1097 q 334 754 306 894 q 363 464 363 614 q 339 201 363 329 q 221 -136 292 -51 q 154 -169 193 -169 q 65 -82 65 -169 q 86 10 65 -60 q 117 107 101 58 q 168 464 168 286 z "},"*":{"ha":856,"x_min":182,"x_max":674,"o":"m 372 675 q 315 626 343 651 q 249 600 279 600 q 202 623 222 600 q 182 672 182 646 q 318 769 182 735 q 182 868 182 810 q 202 917 182 894 q 249 940 222 940 q 315 914 281 940 q 372 867 343 890 q 364 917 371 879 q 358 965 358 947 q 428 1043 358 1043 q 499 967 499 1043 q 492 917 499 947 q 483 867 485 881 q 540 914 513 890 q 607 940 576 940 q 654 918 635 940 q 674 868 674 896 q 538 769 674 810 q 674 672 674 733 q 654 622 674 644 q 607 600 635 600 q 542 628 579 600 q 483 675 513 651 q 492 625 485 661 q 499 575 499 594 q 428 497 499 497 q 358 575 358 497 q 364 625 358 593 q 372 675 371 663 z "},"+":{"ha":1188,"x_min":176,"x_max":1011,"o":"m 524 494 l 524 789 q 593 850 524 850 q 664 789 664 850 l 664 494 l 950 494 q 1011 425 1011 494 q 950 357 1011 357 l 664 357 l 664 61 q 593 0 664 0 q 524 61 524 0 l 524 357 l 238 357 q 176 425 176 357 q 238 494 176 494 l 524 494 z "},",":{"ha":329,"x_min":-50,"x_max":279,"o":"m 44 -214 q -22 -187 7 -214 q -50 -124 -50 -161 q -28 -53 -50 -93 l 86 153 q 185 231 129 231 q 252 206 225 231 q 279 143 279 182 q 257 69 279 110 l 144 -136 q 44 -214 101 -214 z "},"-":{"ha":610,"x_min":49,"x_max":563,"o":"m 160 299 q 49 396 49 299 q 161 493 49 493 l 450 493 q 563 394 563 493 q 449 299 563 299 l 160 299 z "},".":{"ha":329,"x_min":36,"x_max":294,"o":"m 36 119 q 74 212 36 174 q 165 250 111 250 q 258 213 221 250 q 294 119 294 175 q 257 28 294 65 q 165 -10 219 -10 q 74 28 111 -10 q 36 119 36 65 z "},"/":{"ha":528,"x_min":-64,"x_max":593,"o":"m 31 -33 q -36 -8 -8 -33 q -64 57 -64 18 q -44 125 -64 89 l 399 963 q 499 1046 443 1046 q 565 1021 538 1046 q 593 957 593 996 q 572 888 593 926 l 129 50 q 31 -33 85 -33 z "},":":{"ha":329,"x_min":36,"x_max":294,"o":"m 36 119 q 74 212 36 174 q 165 250 111 250 q 258 213 221 250 q 294 119 294 175 q 257 28 294 65 q 165 -10 219 -10 q 74 28 111 -10 q 36 119 36 65 m 36 551 q 74 642 36 604 q 165 681 113 681 q 257 643 219 681 q 294 551 294 606 q 257 460 294 497 q 165 422 219 422 q 74 460 111 422 q 36 551 36 497 z "},";":{"ha":329,"x_min":-50,"x_max":294,"o":"m 36 551 q 74 642 36 604 q 165 681 113 681 q 257 643 219 681 q 294 551 294 606 q 257 460 294 497 q 165 422 219 422 q 74 460 111 422 q 36 551 36 497 m 44 -214 q -22 -187 7 -214 q -50 -124 -50 -161 q -28 -53 -50 -93 l 86 153 q 185 231 129 231 q 252 206 225 231 q 279 143 279 182 q 257 69 279 110 l 144 -136 q 44 -214 101 -214 z "},"<":{"ha":1188,"x_min":158,"x_max":978,"o":"m 363 428 l 363 422 l 938 189 q 971 163 964 178 q 978 115 978 149 q 917 56 978 56 q 858 68 889 56 l 246 321 q 158 425 158 357 q 246 531 158 494 l 858 782 q 921 796 892 796 q 978 738 978 796 q 938 661 978 678 l 363 428 z "},"=":{"ha":1188,"x_min":176,"x_max":1011,"o":"m 176 575 q 195 624 176 603 q 242 644 214 644 l 947 644 q 993 624 975 644 q 1011 575 1011 603 q 993 526 1011 547 q 947 506 975 506 l 242 506 q 195 526 214 506 q 176 575 176 547 m 176 275 q 195 324 176 304 q 242 344 214 344 l 947 344 q 994 324 976 344 q 1011 275 1011 304 q 994 226 1011 246 q 947 207 976 207 l 242 207 q 195 227 214 207 q 176 275 176 247 z "},">":{"ha":1188,"x_min":210,"x_max":1029,"o":"m 825 422 l 825 428 l 251 661 q 210 738 210 678 q 267 796 210 796 q 329 782 296 796 l 943 531 q 1006 493 989 513 q 1029 425 1029 468 q 1006 358 1029 382 q 943 321 988 339 l 329 68 q 271 56 299 56 q 210 115 210 56 q 251 189 210 172 l 825 422 z "},"?":{"ha":726,"x_min":7,"x_max":689,"o":"m 204 96 q 241 183 204 147 q 329 219 278 219 q 417 183 381 219 q 453 96 453 147 q 417 7 453 44 q 329 -31 381 -31 q 241 7 278 -31 q 204 96 204 44 m 219 407 l 219 496 q 231 556 219 535 q 303 599 244 582 q 399 633 378 619 q 446 731 446 664 q 417 798 446 772 q 346 824 389 824 q 211 751 279 824 q 100 679 143 679 q 33 710 58 679 q 7 783 7 742 q 72 926 7 861 q 210 1014 128 982 q 346 1038 272 1038 q 588 951 489 1038 q 689 719 689 861 q 622 522 689 603 q 439 421 554 442 q 328 276 439 276 q 219 407 219 276 z "},"@":{"ha":1426,"x_min":63,"x_max":1365,"o":"m 708 710 q 863 664 801 710 q 933 710 886 710 q 985 691 964 710 q 1006 642 1006 672 l 1006 308 q 1086 204 1006 204 q 1206 281 1174 204 q 1235 506 1235 351 q 1079 822 1235 717 q 724 911 946 911 q 335 782 474 911 q 192 401 192 649 q 333 25 192 156 q 719 -103 471 -103 q 947 -68 835 -103 q 1010 -46 979 -57 q 1075 -33 1049 -33 q 1126 -96 1126 -33 q 1004 -176 1126 -137 q 842 -212 922 -201 q 724 -222 774 -222 q 251 -57 433 -222 q 63 401 63 114 q 250 863 63 690 q 724 1031 432 1031 q 990 994 874 1031 q 1263 818 1165 940 q 1365 511 1365 690 q 1058 94 1365 94 q 963 119 1013 94 q 894 181 913 143 q 679 94 808 94 q 485 190 560 94 q 415 401 415 279 q 499 618 415 526 q 708 710 583 710 m 579 401 q 607 281 579 329 q 708 221 642 221 q 851 408 851 221 q 717 583 851 583 q 608 526 644 583 q 579 401 579 478 z "},"A":{"ha":892,"x_min":0,"x_max":894,"o":"m 451 1028 q 622 894 575 1028 l 878 165 q 894 93 894 118 q 861 17 894 46 q 781 -12 828 -12 q 658 97 693 -12 l 621 217 l 263 217 l 221 89 q 110 -12 188 -12 q 31 17 61 -12 q 0 96 0 47 q 11 163 0 132 l 275 878 q 451 1028 331 1028 m 444 776 l 329 421 l 558 421 l 447 776 l 444 776 z "},"B":{"ha":878,"x_min":90,"x_max":836,"o":"m 247 0 q 125 30 160 0 q 90 146 90 60 l 90 851 q 125 978 90 942 q 250 1014 160 1014 l 439 1014 q 672 957 576 1014 q 789 761 789 889 q 669 538 789 596 l 669 533 q 797 452 758 506 q 836 306 836 399 q 729 71 836 151 q 475 0 635 0 l 247 0 m 321 438 l 321 199 l 436 199 q 546 218 510 199 q 593 313 593 244 q 547 418 593 392 q 432 438 514 438 l 321 438 m 321 817 l 321 618 l 421 618 q 517 635 489 618 q 556 718 556 657 q 421 817 556 817 l 321 817 z "},"C":{"ha":836,"x_min":39,"x_max":835,"o":"m 522 -12 q 165 136 299 -12 q 39 506 39 279 q 169 874 39 728 q 525 1026 306 1026 q 646 1014 594 1026 q 760 967 711 999 q 822 869 822 924 q 794 799 822 829 q 726 769 767 769 q 640 790 692 769 q 526 810 589 810 q 340 711 406 810 q 283 500 283 626 q 343 293 283 372 q 533 204 410 204 q 654 229 588 204 q 743 254 721 254 q 808 224 782 254 q 835 154 835 193 q 813 92 835 122 q 522 -12 736 -12 z "},"D":{"ha":994,"x_min":90,"x_max":953,"o":"m 435 1014 q 738 943 626 1014 q 899 758 842 876 q 953 518 953 647 q 824 144 953 285 q 458 0 690 0 l 247 0 q 125 30 160 0 q 90 146 90 60 l 90 851 q 125 978 90 942 q 250 1014 160 1014 l 435 1014 m 321 214 l 426 214 q 701 519 701 214 q 422 799 701 799 l 321 799 l 321 214 z "},"E":{"ha":719,"x_min":90,"x_max":681,"o":"m 510 1014 q 674 906 674 1014 q 510 799 674 799 l 321 799 l 321 618 l 483 618 q 647 511 647 618 q 483 404 647 404 l 321 404 l 321 214 l 517 214 q 681 107 681 214 q 517 0 681 0 l 247 0 q 125 30 160 0 q 90 146 90 60 l 90 851 q 125 978 90 942 q 250 1014 160 1014 l 510 1014 z "},"F":{"ha":696,"x_min":90,"x_max":674,"o":"m 510 1014 q 674 906 674 1014 q 510 799 674 799 l 321 799 l 321 618 l 483 618 q 647 511 647 618 q 483 404 647 404 l 321 404 l 321 151 q 206 -12 321 -12 q 90 151 90 -12 l 90 851 q 125 978 90 942 q 250 1014 160 1014 l 510 1014 z "},"G":{"ha":1003,"x_min":39,"x_max":974,"o":"m 650 607 l 817 607 q 936 573 899 607 q 974 458 974 539 q 847 118 974 249 q 513 -12 721 -12 q 164 142 294 -12 q 39 508 39 288 q 172 884 39 742 q 538 1026 306 1026 q 724 999 636 1026 q 876 897 831 964 q 901 825 901 861 q 874 751 901 783 q 806 719 846 719 q 695 766 782 719 q 531 813 608 813 q 340 721 407 813 q 282 513 282 642 q 339 299 282 383 q 529 201 406 201 q 674 254 619 201 q 729 397 729 307 q 581 404 610 397 q 492 501 492 424 q 650 607 492 607 z "},"H":{"ha":1067,"x_min":90,"x_max":976,"o":"m 321 410 l 321 151 q 206 -12 321 -12 q 90 151 90 -12 l 90 863 q 206 1026 90 1026 q 321 863 321 1026 l 321 624 l 746 624 l 746 863 q 861 1026 746 1026 q 976 863 976 1026 l 976 151 q 861 -12 976 -12 q 746 151 746 -12 l 746 410 l 321 410 z "},"I":{"ha":422,"x_min":96,"x_max":326,"o":"m 326 151 q 211 -12 326 -12 q 96 151 96 -12 l 96 863 q 211 1026 96 1026 q 326 863 326 1026 l 326 151 z "},"J":{"ha":458,"x_min":-60,"x_max":356,"o":"m 356 17 q 288 -142 356 -78 q 124 -206 219 -206 q -60 -99 -60 -206 q -37 -24 -60 -49 q 40 -1 -18 -3 q 110 15 97 1 q 124 76 124 28 l 124 863 q 236 1026 124 1026 q 356 863 356 1026 l 356 17 z "},"K":{"ha":886,"x_min":90,"x_max":899,"o":"m 90 151 l 90 863 q 206 1026 90 1026 q 321 863 321 1026 l 321 642 l 615 944 q 742 1026 694 1026 q 821 994 786 1026 q 856 918 856 963 q 822 847 856 886 q 764 789 821 846 l 531 557 l 840 208 q 899 94 899 143 q 866 20 899 53 q 792 -12 833 -12 q 667 68 736 -12 l 361 424 l 321 390 l 321 151 q 206 -12 321 -12 q 90 151 90 -12 z "},"L":{"ha":657,"x_min":90,"x_max":681,"o":"m 90 863 q 206 1026 90 1026 q 321 863 321 1026 l 321 214 l 517 214 q 681 107 681 214 q 517 0 681 0 l 247 0 q 125 30 160 0 q 90 146 90 60 l 90 863 z "},"M":{"ha":1246,"x_min":21,"x_max":1225,"o":"m 621 321 l 626 321 l 760 890 q 819 988 774 950 q 925 1026 864 1026 q 1044 982 994 1026 q 1106 868 1094 938 l 1217 176 q 1225 99 1225 125 q 1121 -12 1225 -12 q 1032 35 1060 -12 q 1001 136 1013 65 l 914 690 l 911 690 l 781 178 q 733 64 760 99 q 624 15 694 15 q 514 64 553 15 q 467 178 488 97 l 335 690 l 332 690 l 246 136 q 215 33 235 64 q 125 -12 186 -12 q 21 99 21 -12 q 31 176 21 115 l 142 868 q 202 982 153 938 q 321 1026 251 1026 q 427 989 383 1026 q 486 890 471 951 l 621 321 z "},"N":{"ha":1067,"x_min":90,"x_max":976,"o":"m 206 -12 q 90 151 90 -12 l 90 871 q 197 1026 90 1026 q 319 951 263 1026 l 746 388 l 746 863 q 861 1026 746 1026 q 976 863 976 1026 l 976 125 q 871 -18 976 -18 q 739 65 801 -18 l 321 618 l 321 151 q 206 -12 321 -12 z "},"O":{"ha":1054,"x_min":42,"x_max":1013,"o":"m 42 506 q 169 876 42 733 q 526 1026 301 1026 q 885 878 753 1026 q 1013 506 1013 735 q 885 135 1013 278 q 526 -12 751 -12 q 169 136 301 -12 q 42 506 42 278 m 286 503 q 343 296 286 378 q 526 200 407 200 q 711 294 646 200 q 768 503 768 378 q 714 715 768 632 q 526 814 649 814 q 340 715 404 814 q 286 503 286 632 z "},"P":{"ha":864,"x_min":90,"x_max":829,"o":"m 321 535 l 421 535 q 579 669 579 535 q 421 801 579 801 l 321 801 l 321 535 m 206 -12 q 90 151 90 -12 l 90 851 q 125 978 90 942 q 250 1014 160 1014 l 458 1014 q 725 926 626 1014 q 829 669 829 835 q 735 415 829 506 q 476 325 640 325 l 321 325 l 321 151 q 206 -12 321 -12 z "},"Q":{"ha":1050,"x_min":39,"x_max":1039,"o":"m 524 1026 q 882 878 750 1026 q 1010 506 1010 735 q 921 188 1010 325 l 990 124 q 1039 26 1039 79 q 1011 -42 1039 -14 q 943 -71 983 -71 q 847 -29 900 -71 q 769 44 844 -26 q 524 -12 675 -12 q 167 136 299 -12 q 39 506 39 278 q 167 876 39 733 q 524 1026 299 1026 m 600 213 q 536 315 536 271 q 560 381 536 354 q 622 408 585 408 q 735 342 665 408 q 765 503 765 419 q 711 715 765 632 q 524 814 646 814 q 338 715 401 814 q 283 503 283 632 q 340 294 283 376 q 526 201 406 201 q 600 213 569 201 z "},"R":{"ha":851,"x_min":90,"x_max":824,"o":"m 321 554 l 428 554 q 575 681 575 554 q 431 801 575 801 l 321 801 l 321 554 m 321 401 l 321 151 q 206 -12 321 -12 q 90 151 90 -12 l 90 851 q 125 978 90 942 q 250 1014 160 1014 l 429 1014 q 699 942 596 1014 q 815 697 815 858 q 751 513 815 585 q 574 424 686 442 l 756 221 q 824 89 824 144 q 792 11 824 42 q 714 -19 761 -19 q 590 63 656 -19 l 321 401 z "},"S":{"ha":767,"x_min":35,"x_max":738,"o":"m 738 318 q 621 71 738 161 q 354 -12 515 -12 q 194 10 271 -12 q 58 88 100 36 q 35 146 35 117 q 67 219 35 193 q 146 246 99 246 q 251 222 171 246 q 386 197 338 197 q 466 224 433 197 q 499 297 499 251 q 453 383 499 357 q 325 433 413 407 q 131 525 192 474 q 46 714 46 594 q 154 946 46 860 q 404 1026 256 1026 q 602 983 529 1026 q 675 882 675 940 q 572 786 675 786 q 487 803 542 786 q 397 821 432 821 q 322 801 353 821 q 288 736 288 779 q 300 693 288 711 q 376 647 317 669 q 465 619 421 633 q 657 515 594 575 q 738 318 738 439 z "},"T":{"ha":674,"x_min":-29,"x_max":701,"o":"m 221 799 q 65 806 96 799 q -29 906 -29 825 q 136 1014 -29 1014 l 538 1014 q 701 906 701 1014 q 607 806 701 825 q 451 799 576 799 l 451 151 q 336 -12 451 -12 q 221 151 221 -12 l 221 799 z "},"U":{"ha":1050,"x_min":90,"x_max":960,"o":"m 90 453 l 90 863 q 206 1026 90 1026 q 321 863 321 1026 l 321 479 q 525 210 321 210 q 729 479 729 210 l 729 863 q 844 1026 729 1026 q 960 863 960 1026 l 960 453 q 850 117 960 239 q 525 -12 736 -12 q 200 117 314 -12 q 90 453 90 239 z "},"V":{"ha":821,"x_min":-18,"x_max":846,"o":"m -18 911 q 14 994 -18 963 q 97 1026 46 1026 q 207 926 169 1026 l 421 351 l 619 918 q 738 1026 657 1026 q 846 919 846 1026 q 831 840 846 879 l 531 78 q 414 -17 493 -17 q 304 69 339 -17 l -6 846 q -18 911 -18 878 z "},"W":{"ha":1303,"x_min":10,"x_max":1299,"o":"m 339 -12 q 181 140 215 -12 l 18 849 q 10 919 10 885 q 43 997 10 968 q 126 1026 76 1026 q 238 926 218 1026 l 360 282 l 528 929 q 656 1026 553 1026 q 782 926 757 1026 l 947 282 l 1068 911 q 1185 1026 1090 1026 q 1267 997 1235 1026 q 1299 919 1299 968 q 1290 851 1299 885 l 1114 140 q 1065 28 1093 58 q 954 -12 1031 -12 q 800 117 833 -12 l 649 696 l 506 129 q 339 -12 469 -12 z "},"X":{"ha":825,"x_min":-19,"x_max":846,"o":"m 85 -12 q 13 18 46 -12 q -19 88 -19 49 q 32 204 -19 135 l 278 538 l 93 807 q 42 921 42 882 q 74 997 42 968 q 153 1026 106 1026 q 272 938 214 1026 l 413 725 l 560 940 q 683 1026 618 1026 q 754 997 724 1026 q 785 926 785 967 q 732 807 785 883 l 546 538 l 793 203 q 846 86 846 132 q 814 17 846 46 q 740 -12 782 -12 q 615 72 675 -12 l 410 361 l 206 74 q 85 -12 144 -12 z "},"Y":{"ha":736,"x_min":-28,"x_max":776,"o":"m 675 1026 q 746 995 715 1026 q 776 924 776 964 q 722 807 776 883 l 489 476 l 489 150 q 374 -12 489 -12 q 258 150 258 -12 l 258 476 l 24 807 q -28 924 -28 879 q 6 997 -28 968 q 85 1026 39 1026 q 203 938 140 1026 l 375 690 l 550 940 q 675 1026 610 1026 z "},"Z":{"ha":758,"x_min":-8,"x_max":782,"o":"m 782 107 q 618 0 782 0 l 151 0 q -8 115 -8 0 q 56 256 -8 171 l 469 804 l 171 804 q 7 908 7 804 q 171 1014 7 1014 l 579 1014 q 700 999 663 1014 q 761 906 761 975 q 694 760 761 850 l 290 214 l 618 214 q 782 107 782 214 z "},"[":{"ha":463,"x_min":83,"x_max":456,"o":"m 344 1072 q 456 997 456 1072 q 389 924 456 938 q 276 919 369 919 l 276 -58 q 388 -62 367 -58 q 456 -136 456 -78 q 343 -211 456 -211 l 242 -211 q 121 -182 154 -211 q 83 -65 83 -150 l 83 910 q 118 1036 83 1000 q 243 1072 153 1072 l 344 1072 z "},"\\":{"ha":528,"x_min":-64,"x_max":593,"o":"m -64 957 q -36 1021 -64 996 q 31 1046 -8 1046 q 129 963 85 1046 l 572 125 q 593 57 593 86 q 565 -8 593 18 q 497 -33 536 -33 q 397 50 442 -33 l -44 888 q -64 957 -64 925 z "},"]":{"ha":463,"x_min":7,"x_max":379,"o":"m 117 1072 l 219 1072 q 345 1037 311 1072 q 379 910 379 1001 l 379 -65 q 344 -181 379 -151 q 222 -211 310 -211 l 118 -211 q 7 -136 7 -211 q 74 -64 7 -78 q 185 -58 97 -58 l 185 919 q 72 924 93 919 q 7 997 7 938 q 117 1072 7 1072 z "},"^":{"ha":856,"x_min":119,"x_max":736,"o":"m 428 792 l 279 703 q 200 676 235 676 q 142 702 165 676 q 119 764 119 728 q 171 857 119 817 l 358 1003 q 428 1028 390 1028 q 497 1003 465 1028 l 685 857 q 736 764 736 817 q 714 701 736 726 q 656 676 692 676 q 576 703 621 676 l 428 792 z "},"_":{"ha":731,"x_min":0,"x_max":731,"o":"m 0 -194 l 731 -194 l 731 -336 l 0 -336 l 0 -194 z "},"`":{"ha":713,"x_min":168,"x_max":468,"o":"m 168 1064 q 194 1128 168 1103 q 258 1153 219 1153 q 339 1107 306 1153 l 443 964 q 468 901 468 929 q 390 822 468 822 q 314 867 354 822 l 206 986 q 168 1064 168 1028 z "},"a":{"ha":858,"x_min":33,"x_max":781,"o":"m 265 382 q 300 257 265 308 q 411 199 340 199 q 521 257 482 199 q 554 382 554 308 q 521 506 554 456 q 411 563 482 563 q 301 506 342 563 q 265 382 265 454 m 563 68 q 374 -17 493 -17 q 124 108 222 -17 q 33 379 33 224 q 128 653 33 536 q 382 778 228 778 q 563 697 494 778 q 669 768 601 768 q 781 606 781 768 l 781 154 q 669 -10 781 -10 q 563 68 596 -10 z "},"b":{"ha":858,"x_min":76,"x_max":824,"o":"m 297 718 l 303 718 q 479 783 375 783 q 733 657 636 783 q 824 379 824 540 q 768 167 824 263 q 610 17 711 67 q 479 -14 547 -14 q 297 63 363 -14 q 190 -10 254 -10 q 76 154 76 -10 l 76 924 q 190 1088 76 1088 q 297 924 297 1088 l 297 718 m 297 376 q 333 251 297 301 q 446 196 374 196 q 560 256 518 196 q 594 383 594 307 q 560 514 594 461 q 446 575 519 575 q 332 518 372 575 q 297 392 297 468 l 297 376 z "},"c":{"ha":690,"x_min":36,"x_max":674,"o":"m 36 379 q 142 667 36 556 q 422 779 247 779 q 582 751 514 779 q 674 635 674 713 q 647 567 674 594 q 581 539 621 539 q 512 556 554 539 q 422 574 469 574 q 304 515 346 574 q 267 383 267 463 q 306 250 267 300 q 431 194 350 194 q 518 211 478 194 q 585 228 558 228 q 648 199 624 228 q 672 131 672 171 q 578 15 672 63 q 408 -18 510 -18 q 136 97 239 -18 q 36 379 36 208 z "},"d":{"ha":858,"x_min":33,"x_max":781,"o":"m 556 718 l 563 718 l 563 924 q 669 1088 563 1088 q 781 924 781 1088 l 781 154 q 669 -10 781 -10 q 563 63 601 -10 q 379 -14 493 -14 q 128 114 231 -14 q 33 386 33 233 q 126 658 33 543 q 379 783 225 783 q 556 718 481 783 m 563 372 l 563 413 q 413 575 563 575 q 299 513 340 575 q 264 383 264 460 q 300 256 264 308 q 413 196 342 196 q 526 249 486 196 q 563 372 563 297 z "},"e":{"ha":806,"x_min":36,"x_max":781,"o":"m 267 317 q 321 217 274 251 q 436 182 368 182 q 574 219 493 182 q 674 256 654 256 q 763 168 763 256 q 738 101 763 135 q 596 8 693 40 q 425 -19 514 -19 q 147 95 258 -19 q 36 378 36 210 q 142 663 36 544 q 414 781 249 781 q 563 750 496 781 q 719 618 658 706 q 781 428 781 531 q 740 343 781 372 q 649 317 706 317 l 267 317 m 264 464 l 560 464 q 515 560 556 522 q 415 597 474 597 q 315 560 356 597 q 264 464 275 524 z "},"f":{"ha":500,"x_min":-12,"x_max":526,"o":"m 351 749 q 526 649 526 749 q 463 563 526 583 q 346 551 429 551 l 346 154 q 235 -10 346 -10 q 122 154 122 -10 l 122 551 q -12 649 -12 551 q 122 749 -12 749 l 122 826 q 178 1014 122 947 q 356 1088 238 1088 q 503 975 503 1088 q 401 883 503 883 q 360 866 368 883 q 351 749 351 849 z "},"g":{"ha":851,"x_min":33,"x_max":774,"o":"m 563 365 l 563 406 q 413 564 563 564 q 301 504 342 564 q 265 379 265 453 q 300 251 265 304 q 413 192 340 192 q 526 243 486 192 q 563 365 563 290 m 563 94 l 557 94 q 358 -11 486 -11 q 233 18 293 -11 q 82 169 136 67 q 33 379 33 264 q 128 653 33 536 q 382 778 228 778 q 563 697 494 778 q 661 768 597 768 q 774 606 774 768 l 774 154 q 764 -25 774 50 q 636 -253 744 -174 q 379 -325 536 -325 q 137 -276 224 -325 q 50 -161 50 -226 q 77 -90 50 -118 q 147 -62 104 -62 q 246 -92 172 -62 q 388 -122 319 -122 q 518 -71 474 -122 q 563 67 563 -19 l 563 94 z "},"h":{"ha":840,"x_min":76,"x_max":768,"o":"m 303 701 q 494 768 367 768 q 768 476 768 768 l 768 154 q 656 -10 768 -10 q 543 154 543 -10 l 543 408 q 524 526 543 492 q 422 576 497 576 q 303 411 303 576 l 303 154 q 190 -10 303 -10 q 76 154 76 -10 l 76 924 q 190 1088 76 1088 q 303 924 303 1088 l 303 701 z "},"i":{"ha":392,"x_min":67,"x_max":325,"o":"m 308 154 q 197 -10 308 -10 q 85 154 85 -10 l 85 606 q 197 768 85 768 q 308 606 308 768 l 308 154 m 67 958 q 105 1050 67 1013 q 197 1088 143 1088 q 288 1050 251 1088 q 325 958 325 1013 q 288 867 325 904 q 197 829 251 829 q 104 866 142 829 q 67 958 67 903 z "},"j":{"ha":392,"x_min":67,"x_max":325,"o":"m 308 -150 q 197 -314 308 -314 q 85 -150 85 -314 l 85 606 q 197 768 85 768 q 308 606 308 768 l 308 -150 m 67 958 q 105 1050 67 1013 q 197 1088 143 1088 q 288 1050 251 1088 q 325 958 325 1013 q 288 867 325 904 q 197 829 251 829 q 104 866 142 829 q 67 958 67 903 z "},"k":{"ha":733,"x_min":76,"x_max":749,"o":"m 303 511 l 493 708 q 608 769 551 769 q 674 745 646 769 q 703 683 703 721 q 646 575 703 628 l 494 435 l 704 189 q 749 79 749 136 q 716 15 749 39 q 643 -10 683 -10 q 526 57 576 -10 l 303 357 l 303 154 q 190 -10 303 -10 q 76 154 76 -10 l 76 924 q 190 1088 76 1088 q 303 924 303 1088 l 303 511 z "},"l":{"ha":392,"x_min":85,"x_max":308,"o":"m 85 924 q 197 1088 85 1088 q 308 924 308 1088 l 308 154 q 197 -10 308 -10 q 85 154 85 -10 l 85 924 z "},"m":{"ha":1251,"x_min":76,"x_max":1181,"o":"m 76 154 l 76 606 q 186 768 76 768 q 297 697 257 768 q 476 768 360 768 q 700 665 624 768 q 926 768 793 768 q 1181 476 1181 768 l 1181 154 q 1068 -10 1181 -10 q 958 154 958 -10 l 958 408 q 854 576 958 576 q 740 411 740 576 l 740 154 q 629 -10 740 -10 q 518 154 518 -10 l 518 408 q 415 576 518 576 q 300 411 300 576 l 300 154 q 190 -10 300 -10 q 76 154 76 -10 z "},"n":{"ha":840,"x_min":76,"x_max":768,"o":"m 76 154 l 76 606 q 190 768 76 768 q 297 697 257 768 q 494 768 361 768 q 768 476 768 768 l 768 154 q 656 -10 768 -10 q 543 154 543 -10 l 543 408 q 524 526 543 492 q 422 576 497 576 q 303 411 303 576 l 303 154 q 190 -10 303 -10 q 76 154 76 -10 z "},"o":{"ha":832,"x_min":36,"x_max":796,"o":"m 36 379 q 142 666 36 550 q 417 782 249 782 q 692 667 588 782 q 796 379 796 551 q 693 94 796 208 q 417 -22 586 -22 q 140 96 249 -22 q 36 379 36 210 m 268 382 q 304 253 268 306 q 417 192 344 192 q 531 253 490 192 q 565 382 565 304 q 529 510 565 457 q 417 571 489 571 q 303 511 343 571 q 268 382 268 458 z "},"p":{"ha":858,"x_min":76,"x_max":824,"o":"m 303 42 l 297 42 l 297 -153 q 190 -314 297 -314 q 76 -150 76 -314 l 76 606 q 190 768 76 768 q 297 697 257 768 q 482 774 365 774 q 735 651 638 774 q 824 379 824 538 q 769 163 824 261 q 613 8 714 58 q 479 -24 549 -24 q 303 42 378 -24 m 297 365 q 332 240 297 289 q 446 185 372 185 q 560 246 519 185 q 594 376 594 300 q 558 504 594 451 q 446 565 518 565 q 341 524 385 565 q 297 365 297 483 z "},"q":{"ha":858,"x_min":33,"x_max":781,"o":"m 563 42 l 556 42 q 378 -24 481 -24 q 126 106 226 -24 q 33 379 33 224 q 125 651 33 536 q 376 774 222 774 q 563 697 493 774 q 669 768 603 768 q 781 606 781 768 l 781 -150 q 669 -314 781 -314 q 563 -150 563 -314 l 563 42 m 563 360 l 563 403 q 413 565 563 565 q 300 504 340 565 q 264 376 264 451 q 299 246 264 300 q 413 185 339 185 q 526 236 488 185 q 563 360 563 283 z "},"r":{"ha":542,"x_min":76,"x_max":564,"o":"m 76 154 l 76 606 q 190 768 76 768 q 297 697 257 768 q 449 772 367 772 q 531 741 497 772 q 564 661 564 710 q 507 576 564 608 q 394 533 500 574 q 314 474 328 507 q 303 388 303 447 l 303 154 q 190 -10 303 -10 q 76 154 76 -10 z "},"s":{"ha":621,"x_min":14,"x_max":596,"o":"m 292 -21 q 35 82 104 -21 q 14 146 14 113 q 119 247 14 247 q 205 214 150 247 q 308 181 260 181 q 371 226 371 181 q 283 294 371 256 q 122 379 163 349 q 35 539 35 444 q 121 718 35 650 q 315 782 201 782 q 450 760 386 782 q 560 683 526 733 q 579 625 579 654 q 553 558 579 585 q 486 531 526 531 q 398 558 457 531 q 306 585 339 585 q 254 546 254 585 q 297 499 254 515 q 432 443 392 463 q 550 361 510 404 q 596 235 596 311 q 500 46 596 118 q 292 -21 411 -21 z "},"t":{"ha":475,"x_min":-12,"x_max":508,"o":"m 122 551 q -12 649 -12 551 q 122 749 -12 742 q 128 913 122 885 q 235 1011 149 1011 q 340 913 319 1011 q 346 749 346 885 q 508 649 508 749 q 346 551 508 551 l 346 154 q 235 -10 346 -10 q 122 154 122 -10 l 122 551 z "},"u":{"ha":825,"x_min":72,"x_max":751,"o":"m 72 307 l 72 606 q 185 768 72 768 q 297 606 297 768 l 297 353 q 317 240 297 278 q 413 189 343 189 q 508 240 482 189 q 528 353 528 278 l 528 606 q 640 768 528 768 q 751 606 751 768 l 751 307 q 663 62 751 146 q 413 -22 575 -22 q 161 62 250 -22 q 72 307 72 146 z "},"v":{"ha":660,"x_min":-6,"x_max":674,"o":"m -6 657 q 26 735 -6 703 q 103 768 57 768 q 218 658 183 768 l 340 268 l 463 674 q 569 768 490 768 q 647 737 619 768 q 674 656 674 706 q 656 582 674 629 l 467 92 q 422 13 444 35 q 338 -18 392 -18 q 250 15 282 -18 q 203 99 226 38 l 7 596 q -6 657 -6 628 z "},"w":{"ha":1079,"x_min":-6,"x_max":1082,"o":"m 544 457 l 536 457 l 449 92 q 321 -18 422 -18 q 185 99 226 -18 l 7 596 q -6 657 -6 631 q 26 735 -6 703 q 103 768 57 768 q 218 658 186 768 l 336 249 l 432 660 q 540 768 457 768 q 650 657 622 768 l 753 254 l 871 674 q 978 768 897 768 q 1055 737 1028 768 q 1082 656 1082 706 q 1065 582 1082 629 l 893 92 q 764 -18 854 -18 q 629 99 657 -18 l 544 457 z "},"x":{"ha":703,"x_min":-7,"x_max":725,"o":"m 358 239 l 199 49 q 101 -10 150 -10 q 25 24 57 -10 q -7 101 -7 57 q 40 200 -7 147 l 226 406 l 69 565 q 28 656 28 608 q 58 735 28 700 q 132 769 89 769 q 225 722 183 769 l 363 564 l 488 717 q 579 769 531 769 q 660 738 626 769 q 694 658 694 706 q 644 563 694 615 l 496 404 l 672 206 q 711 156 703 171 q 725 94 725 131 q 695 21 725 51 q 622 -10 665 -10 q 519 49 569 -10 l 358 239 z "},"y":{"ha":686,"x_min":0,"x_max":699,"o":"m 588 768 q 699 661 699 768 q 681 583 699 626 l 338 -229 q 239 -321 299 -321 q 158 -292 189 -321 q 128 -212 128 -262 q 147 -136 128 -179 l 239 65 l 13 594 q 0 657 0 624 q 31 736 0 704 q 110 768 63 768 q 186 736 158 768 q 224 660 203 717 l 351 321 l 489 679 q 588 768 524 768 z "},"z":{"ha":638,"x_min":-8,"x_max":661,"o":"m 661 103 q 519 0 661 0 l 110 0 q -8 69 -8 0 q 25 156 -8 113 l 333 554 l 140 554 q -1 657 -1 554 q 142 758 -1 758 l 501 758 q 608 747 574 758 q 643 690 643 735 q 597 592 643 650 l 299 208 l 521 208 q 661 103 661 208 z "},"{":{"ha":713,"x_min":108,"x_max":613,"o":"m 342 372 l 342 367 q 442 289 415 344 q 461 163 461 247 l 461 -6 q 479 -118 461 -92 q 531 -143 493 -139 q 586 -156 576 -150 q 613 -217 613 -169 q 542 -289 613 -289 q 418 -279 465 -289 q 310 -196 338 -262 q 292 -53 292 -150 l 292 122 q 264 258 292 218 q 190 299 236 299 q 108 368 108 299 q 190 440 108 440 q 264 482 236 440 q 292 618 292 524 l 292 792 q 311 933 292 888 q 418 1018 339 1000 q 542 1028 463 1028 q 613 956 613 1028 q 586 894 613 908 q 531 883 575 888 q 479 860 493 879 q 461 744 461 835 l 461 578 q 440 450 461 493 q 342 372 414 394 z "},"|":{"ha":713,"x_min":285,"x_max":429,"o":"m 285 1089 l 429 1089 l 429 -272 l 285 -272 l 285 1089 z "},"}":{"ha":713,"x_min":100,"x_max":604,"o":"m 371 372 q 271 451 297 394 q 253 578 253 492 l 253 744 q 235 860 253 836 q 183 883 221 879 q 126 894 138 888 q 100 956 100 908 q 171 1028 100 1028 q 294 1018 250 1028 q 401 933 374 1000 q 421 792 421 888 l 421 618 q 450 482 421 524 q 524 440 479 440 q 604 368 604 440 q 524 299 604 299 q 449 258 478 299 q 421 122 421 217 l 421 -53 q 371 -243 421 -197 q 171 -289 321 -289 q 100 -217 100 -289 q 126 -156 100 -169 q 182 -143 136 -150 q 236 -116 219 -139 q 253 -6 253 -93 l 253 163 q 272 290 253 250 q 371 367 297 344 l 371 372 z "},"~":{"ha":1188,"x_min":142,"x_max":1049,"o":"m 424 581 q 644 511 549 581 q 694 465 660 494 q 765 443 724 443 q 869 492 826 443 q 957 540 913 540 q 1049 458 1049 540 q 1028 390 1049 424 q 765 274 954 274 q 535 354 617 274 q 492 394 521 368 q 424 411 472 411 q 319 363 365 411 q 229 314 274 314 q 142 396 142 314 q 163 463 142 428 q 276 554 199 522 q 424 581 344 581 z "},"‚":{"ha":329,"x_min":39,"x_max":297,"o":"m 193 19 q 140 8 163 8 q 66 38 93 8 q 39 114 39 67 q 72 198 39 165 q 157 231 106 231 q 263 175 224 231 q 297 57 297 126 q 278 -42 297 4 q 203 -146 251 -103 q 88 -196 149 -196 q 58 -184 71 -196 q 44 -157 44 -172 q 65 -119 44 -131 q 153 -69 142 -78 q 193 19 192 -37 z "},"„":{"ha":643,"x_min":39,"x_max":610,"o":"m 193 19 q 140 8 163 8 q 66 38 93 8 q 39 114 39 67 q 72 198 39 165 q 157 231 106 231 q 263 175 224 231 q 297 57 297 126 q 278 -42 297 4 q 203 -146 251 -103 q 88 -196 149 -196 q 58 -184 71 -196 q 44 -157 44 -172 q 65 -119 44 -131 q 153 -69 142 -78 q 193 19 192 -37 m 506 19 q 453 8 476 8 q 380 38 407 8 q 353 114 353 68 q 386 198 353 165 q 471 231 419 231 q 576 175 538 231 q 610 57 610 126 q 572 -80 610 -15 q 471 -176 533 -144 q 399 -196 433 -196 q 370 -184 383 -196 q 357 -157 357 -172 q 379 -119 357 -131 q 465 -69 451 -82 q 506 19 504 -36 z "},"…":{"ha":1460,"x_min":125,"x_max":1335,"o":"m 125 119 q 163 212 125 174 q 256 250 201 250 q 347 212 310 250 q 383 119 383 174 q 347 28 383 65 q 256 -10 310 -10 q 163 27 200 -10 q 125 119 125 64 m 600 119 q 638 212 600 174 q 731 250 676 250 q 822 212 785 250 q 858 119 858 174 q 822 28 858 65 q 731 -10 785 -10 q 638 27 675 -10 q 600 119 600 64 m 1076 119 q 1115 212 1076 174 q 1207 250 1153 250 q 1298 212 1261 250 q 1335 119 1335 174 q 1298 28 1335 65 q 1207 -10 1261 -10 q 1114 27 1151 -10 q 1076 119 1076 64 z "},"†":{"ha":731,"x_min":36,"x_max":694,"o":"m 463 735 l 583 735 q 694 650 694 735 q 582 569 694 569 l 463 569 l 463 -19 q 365 -162 463 -162 q 268 -19 268 -162 l 268 569 l 147 569 q 36 651 36 569 q 149 735 36 735 l 268 735 l 268 901 q 365 1043 268 1043 q 463 901 463 1043 l 463 735 z "},"‰":{"ha":1486,"x_min":14,"x_max":1472,"o":"m 14 800 q 77 959 14 892 q 232 1026 140 1026 q 388 960 325 1026 q 450 800 450 894 q 388 640 450 707 q 232 574 325 574 q 77 640 140 574 q 14 800 14 707 m 160 800 q 181 748 160 771 q 232 725 203 725 q 285 747 264 725 q 306 800 306 768 q 285 854 306 833 q 232 875 265 875 q 181 853 201 875 q 160 800 160 831 m 546 214 q 609 373 546 306 q 764 440 672 440 q 919 374 857 440 q 982 214 982 308 q 919 54 982 121 q 764 -12 857 -12 q 609 54 672 -12 q 546 214 546 121 m 692 214 q 713 162 692 185 q 764 139 735 139 q 817 160 796 139 q 838 214 838 182 q 817 268 838 247 q 764 289 797 289 q 713 267 733 289 q 692 214 692 244 m 1035 214 q 1098 373 1035 306 q 1253 440 1161 440 q 1410 374 1347 440 q 1472 214 1472 308 q 1409 54 1472 121 q 1253 -12 1346 -12 q 1098 54 1161 -12 q 1035 214 1035 121 m 1181 214 q 1202 162 1181 185 q 1253 139 1224 139 q 1306 160 1285 139 q 1326 214 1326 182 q 1306 268 1326 247 q 1253 289 1286 289 q 1201 267 1222 289 q 1181 214 1181 244 m 242 -24 q 183 0 207 -24 q 160 58 160 24 q 182 132 160 93 l 653 954 q 753 1033 699 1033 q 811 1011 788 1033 q 835 954 835 989 q 810 878 835 921 l 340 57 q 242 -24 294 -24 z "},"‹":{"ha":389,"x_min":33,"x_max":353,"o":"m 182 375 l 306 285 q 342 251 333 264 q 353 204 353 235 q 294 121 353 121 q 235 142 268 121 q 68 272 110 219 q 33 375 33 317 q 67 478 33 440 q 236 611 128 547 q 296 631 268 631 q 353 547 353 631 q 306 467 353 501 l 182 375 z "},"‘":{"ha":329,"x_min":43,"x_max":301,"o":"m 147 831 q 199 842 176 842 q 274 811 246 842 q 301 733 301 781 q 267 651 301 683 q 181 619 232 619 q 78 671 117 619 q 43 785 43 718 q 80 926 43 860 q 181 1026 117 993 q 253 1046 218 1046 q 296 1007 296 1046 q 274 971 296 982 q 188 919 208 938 q 147 831 149 885 z "},"’":{"ha":329,"x_min":43,"x_max":303,"o":"m 197 832 q 146 821 171 821 q 72 850 100 821 q 43 925 43 879 q 77 1010 43 976 q 163 1043 111 1043 q 268 988 231 1043 q 303 869 303 940 q 283 771 303 815 q 207 667 257 713 q 92 617 150 617 q 49 654 49 617 q 71 692 49 679 q 157 743 142 731 q 197 832 196 778 z "},"“":{"ha":643,"x_min":43,"x_max":618,"o":"m 464 831 q 515 842 493 842 q 590 811 563 842 q 618 733 618 781 q 583 651 618 683 q 497 619 549 619 q 394 671 433 619 q 360 785 360 718 q 397 926 360 860 q 497 1026 433 993 q 569 1046 535 1046 q 611 1007 611 1046 q 590 971 611 982 q 504 919 519 932 q 464 831 465 885 m 147 831 q 200 842 176 842 q 274 812 247 842 q 301 733 301 782 q 267 651 301 683 q 182 619 232 619 q 79 672 118 619 q 43 785 43 719 q 81 926 43 858 q 182 1026 119 994 q 254 1046 219 1046 q 297 1007 297 1046 q 275 971 297 982 q 188 919 207 936 q 147 831 149 885 z "},"”":{"ha":643,"x_min":43,"x_max":618,"o":"m 197 832 q 146 821 171 821 q 72 850 100 821 q 43 925 43 879 q 77 1010 43 976 q 163 1043 111 1043 q 268 988 231 1043 q 303 869 303 940 q 283 771 303 815 q 207 667 257 713 q 92 617 150 617 q 49 654 49 617 q 71 692 49 679 q 157 743 142 731 q 197 832 196 778 m 514 832 q 463 821 488 821 q 388 850 417 821 q 360 925 360 879 q 394 1010 360 976 q 479 1043 428 1043 q 585 989 547 1043 q 618 869 618 940 q 581 735 618 799 q 481 638 543 671 q 408 617 442 617 q 365 654 365 617 q 388 692 365 679 q 474 743 460 732 q 514 832 513 776 z "},"•":{"ha":842,"x_min":214,"x_max":626,"o":"m 214 531 q 274 676 214 617 q 421 736 335 736 q 567 676 507 736 q 626 531 626 617 q 566 384 626 444 q 419 324 506 324 q 274 385 335 324 q 214 531 214 446 z "},"–":{"ha":731,"x_min":0,"x_max":731,"o":"m 646 469 q 731 396 731 469 q 646 324 731 324 l 85 324 q 0 396 0 324 q 85 469 0 469 l 646 469 z "},"—":{"ha":1460,"x_min":0,"x_max":1460,"o":"m 1360 469 q 1460 396 1460 469 q 1358 324 1460 324 l 101 324 q 0 396 0 324 q 101 469 0 469 l 1360 469 z "},"™":{"ha":1164,"x_min":147,"x_max":983,"o":"m 201 1018 l 432 1018 q 485 978 485 1018 q 432 940 485 940 l 368 940 l 368 692 q 314 638 368 638 q 264 692 264 638 l 264 940 l 201 940 q 147 978 147 940 q 201 1018 147 1018 m 888 893 l 803 692 q 761 658 789 658 q 718 692 732 658 l 633 893 l 631 893 l 631 692 q 583 638 631 638 q 536 692 536 638 l 536 953 q 604 1018 536 1018 q 699 950 672 1018 l 761 788 l 822 953 q 914 1018 846 1018 q 983 953 983 1018 l 983 692 q 933 638 983 638 q 890 692 890 638 l 890 893 l 888 893 z "},"›":{"ha":389,"x_min":38,"x_max":357,"o":"m 206 376 l 85 467 q 49 500 56 488 q 38 547 38 517 q 96 631 38 631 q 153 611 122 631 q 322 479 282 528 q 357 376 357 438 q 324 274 357 310 q 215 182 286 233 q 93 121 131 121 q 38 204 38 121 q 85 285 38 249 l 206 376 z "},"¤":{"ha":864,"x_min":47,"x_max":818,"o":"m 119 1001 l 263 860 q 432 914 333 914 q 604 860 531 914 l 746 1001 l 818 926 l 678 785 q 731 617 731 708 q 678 447 731 525 l 818 306 l 746 232 l 604 374 q 433 319 533 319 q 263 374 335 319 l 119 232 l 47 306 l 189 447 q 136 617 136 521 q 189 785 136 711 l 47 926 l 119 1001 m 433 808 q 299 751 356 808 q 242 617 242 694 q 298 481 242 538 q 433 425 354 425 q 569 481 513 425 q 626 617 626 538 q 569 752 626 696 q 433 808 513 808 z "},"¦":{"ha":713,"x_min":285,"x_max":429,"o":"m 285 997 l 429 997 l 429 469 l 285 469 l 285 997 m 285 283 l 429 283 l 429 -244 l 285 -244 l 285 283 z "},"§":{"ha":746,"x_min":14,"x_max":743,"o":"m 144 629 q 74 789 74 699 q 161 979 74 910 q 365 1043 242 1043 q 654 907 579 1043 q 675 826 675 869 q 650 758 675 785 q 583 731 625 731 q 517 767 543 731 q 467 839 492 803 q 371 876 431 876 q 275 806 275 876 q 325 738 275 765 q 471 663 368 714 q 615 585 574 613 q 725 467 696 531 q 743 372 743 428 q 615 156 743 231 q 685 -8 685 85 q 592 -199 685 -131 q 382 -258 508 -258 q 254 -240 311 -258 q 129 -169 179 -217 q 71 -43 71 -114 q 97 26 71 -3 q 163 54 122 54 q 231 18 204 54 q 282 -54 257 -18 q 382 -92 318 -92 q 482 -19 482 -92 q 433 49 482 22 q 211 160 322 104 q 33 319 72 236 q 14 414 14 361 q 49 539 14 481 q 144 629 85 597 m 486 250 q 549 346 549 282 q 478 433 549 393 q 271 536 422 465 q 210 439 210 500 q 279 354 210 394 q 486 250 349 314 z "},"Ё":{"ha":719,"x_min":90,"x_max":681,"o":"m 510 1014 q 674 906 674 1014 q 510 799 674 799 l 321 799 l 321 618 l 483 618 q 647 511 647 618 q 483 404 647 404 l 321 404 l 321 214 l 517 214 q 681 107 681 214 q 517 0 681 0 l 247 0 q 125 30 160 0 q 90 146 90 60 l 90 851 q 125 978 90 942 q 250 1014 160 1014 l 510 1014 m 583 1217 q 483 1103 583 1103 q 409 1135 435 1103 q 383 1217 383 1168 q 409 1299 383 1267 q 483 1332 435 1332 q 583 1217 583 1332 m 338 1217 q 238 1103 338 1103 q 139 1217 139 1103 q 238 1332 139 1332 q 338 1217 338 1332 z "},"©":{"ha":1188,"x_min":76,"x_max":1113,"o":"m 593 1029 q 961 878 810 1029 q 1113 511 1113 728 q 963 149 1113 296 q 593 -7 804 -7 q 230 147 383 -7 q 76 511 76 301 q 228 876 76 724 q 593 1029 379 1029 m 594 944 q 288 819 414 944 q 163 513 163 693 q 289 206 163 333 q 594 79 415 79 q 903 208 771 79 q 1026 513 1026 329 q 901 819 1026 693 q 594 944 775 944 m 321 511 q 406 726 321 643 q 622 810 490 810 q 742 789 690 810 q 810 701 810 760 q 742 631 810 631 q 686 643 724 631 q 622 656 649 656 q 529 614 564 656 q 494 514 494 572 q 531 412 494 453 q 629 371 568 371 q 692 383 657 371 q 744 396 728 396 q 792 375 774 396 q 810 324 810 354 q 722 229 810 263 q 611 211 676 211 q 402 297 483 211 q 321 511 321 383 z "},"«":{"ha":719,"x_min":33,"x_max":682,"o":"m 182 375 l 306 285 q 342 251 333 264 q 353 204 353 235 q 294 121 353 121 q 235 142 268 121 q 68 272 110 219 q 33 375 33 317 q 67 478 33 440 q 236 611 128 547 q 296 631 268 631 q 353 547 353 631 q 306 467 353 501 l 182 375 m 514 375 l 636 285 q 682 204 682 251 q 624 121 682 121 q 565 142 599 121 q 399 272 438 222 q 364 375 364 317 q 397 478 364 442 q 567 611 461 549 q 626 631 600 631 q 682 547 682 631 q 674 501 682 515 q 636 467 665 488 l 514 375 z "},"¬":{"ha":1188,"x_min":157,"x_max":1015,"o":"m 242 610 l 1015 610 l 1015 318 q 943 244 1015 244 q 872 318 872 244 l 872 465 l 242 465 q 157 538 157 465 q 242 610 157 610 z "},"®":{"ha":1188,"x_min":76,"x_max":1113,"o":"m 593 1029 q 961 878 810 1029 q 1113 511 1113 728 q 1074 310 1113 403 q 881 81 1015 168 q 593 -7 747 -7 q 229 147 382 -7 q 76 511 76 300 q 153 781 76 650 q 338 965 222 900 q 593 1029 454 1029 m 594 944 q 294 821 417 944 q 163 513 163 688 q 290 207 163 336 q 593 78 417 78 q 897 203 768 78 q 1026 503 1026 328 q 903 817 1026 689 q 594 944 779 944 m 604 808 q 850 643 850 808 q 725 490 850 524 l 822 342 q 850 253 850 299 q 826 224 850 236 q 782 211 801 211 q 707 269 742 211 l 588 469 l 519 469 l 519 300 q 447 211 519 211 q 379 300 379 211 l 379 726 q 447 808 379 808 l 604 808 m 519 719 l 519 553 l 588 553 q 706 635 706 553 q 581 719 706 719 l 519 719 z "},"°":{"ha":469,"x_min":24,"x_max":446,"o":"m 235 1019 q 384 957 322 1019 q 446 807 446 894 q 383 658 446 719 q 233 596 321 596 q 85 658 147 596 q 24 807 24 719 q 85 957 24 894 q 235 1019 147 1019 m 235 929 q 148 894 183 929 q 113 808 113 860 q 149 722 113 758 q 235 686 185 686 q 321 722 285 686 q 357 808 357 758 q 322 895 357 861 q 235 929 288 929 z "},"±":{"ha":1188,"x_min":175,"x_max":1011,"o":"m 522 488 l 275 488 q 175 554 175 488 q 275 626 175 626 l 522 626 l 522 779 q 592 853 522 853 q 664 779 664 853 l 664 626 l 911 626 q 1011 554 1011 626 q 911 488 1011 488 l 664 488 l 664 335 q 592 261 664 261 q 522 335 522 261 l 522 488 m 275 139 l 911 139 q 1011 67 1011 139 q 911 0 1011 0 l 275 0 q 175 67 175 0 q 275 139 175 139 z "},"µ":{"ha":901,"x_min":90,"x_max":901,"o":"m 771 143 q 857 139 840 143 q 901 78 901 128 q 831 -4 901 22 q 713 -22 779 -22 q 571 53 601 -22 l 567 53 q 444 -22 513 -22 q 290 61 361 -22 l 290 -196 q 196 -306 290 -306 q 90 -196 90 -306 l 90 654 q 196 760 90 760 q 290 654 290 760 l 290 458 q 331 207 290 276 q 460 143 368 143 q 571 403 571 143 l 571 654 q 674 760 571 760 q 771 654 771 760 l 771 143 z "},"¶":{"ha":758,"x_min":29,"x_max":758,"o":"m 301 1029 l 685 1029 q 758 983 758 1029 q 685 940 758 940 l 606 940 l 606 82 q 549 0 606 0 q 500 82 500 0 l 500 940 l 389 940 l 389 82 q 336 0 389 0 q 283 82 283 0 l 283 546 q 103 613 172 550 q 29 788 29 679 q 110 968 29 903 q 301 1029 183 1029 z "},"·":{"ha":463,"x_min":101,"x_max":361,"o":"m 101 506 q 139 598 101 560 q 231 636 176 636 q 324 599 286 636 q 361 506 361 561 q 323 415 361 451 q 231 378 285 378 q 139 415 176 378 q 101 506 101 451 z "},"ё":{"ha":799,"x_min":33,"x_max":778,"o":"m 264 317 q 318 217 271 251 q 433 182 365 182 q 571 219 490 182 q 671 256 651 256 q 760 168 760 256 q 735 101 760 135 q 593 8 690 40 q 422 -19 511 -19 q 144 95 256 -19 q 33 378 33 210 q 140 663 33 544 q 411 781 246 781 q 672 675 567 781 q 778 414 778 569 q 735 338 778 364 q 644 317 699 317 l 264 317 m 261 464 l 557 464 q 512 560 553 522 q 413 597 471 597 q 313 560 353 597 q 261 464 272 524 m 644 958 q 544 844 644 844 q 470 877 496 844 q 444 958 444 910 q 470 1041 444 1008 q 544 1074 496 1074 q 644 958 644 1074 m 399 958 q 300 844 399 844 q 200 958 200 844 q 300 1074 200 1074 q 399 958 399 1074 z "},"№":{"ha":1679,"x_min":86,"x_max":1603,"o":"m 201 -12 q 86 151 86 -12 l 86 871 q 193 1026 86 1026 q 315 951 258 1026 l 742 388 l 742 863 q 857 1026 742 1026 q 972 863 972 1026 l 972 125 q 867 -18 972 -18 q 735 65 797 -18 l 317 618 l 317 151 q 201 -12 317 -12 m 1082 603 q 1151 806 1082 728 q 1343 883 1219 883 q 1535 806 1467 883 q 1603 603 1603 729 q 1536 404 1603 478 q 1343 326 1467 326 q 1151 403 1221 326 q 1082 603 1082 479 m 1254 606 q 1343 474 1254 474 q 1431 606 1431 474 q 1343 736 1431 736 q 1254 606 1254 736 m 1193 56 q 1082 136 1082 56 q 1194 214 1082 214 l 1492 214 q 1603 135 1603 214 q 1569 68 1603 85 q 1490 56 1546 56 l 1193 56 z "},"»":{"ha":719,"x_min":36,"x_max":686,"o":"m 206 376 l 83 467 q 46 502 56 488 q 36 547 36 517 q 94 631 36 631 q 153 611 122 631 q 321 479 279 529 q 356 376 356 438 q 322 274 356 311 q 215 181 286 232 q 93 121 131 121 q 36 204 36 121 q 83 285 36 250 l 206 376 m 535 376 l 414 467 q 378 500 385 488 q 367 547 367 517 q 425 631 367 631 q 483 611 453 631 q 651 479 610 529 q 686 376 686 438 q 651 274 686 311 q 543 181 611 229 q 422 121 461 121 q 367 204 367 121 q 414 285 367 249 l 535 376 z "},"А":{"ha":892,"x_min":0,"x_max":894,"o":"m 451 1028 q 622 894 575 1028 l 878 165 q 894 93 894 118 q 861 17 894 46 q 781 -12 828 -12 q 658 97 693 -12 l 621 217 l 263 217 l 221 89 q 110 -12 188 -12 q 31 17 61 -12 q 0 96 0 47 q 11 163 0 132 l 275 878 q 451 1028 331 1028 m 444 776 l 329 421 l 558 421 l 447 776 l 444 776 z "},"Б":{"ha":864,"x_min":90,"x_max":829,"o":"m 321 479 l 321 213 l 421 213 q 579 344 579 213 q 421 479 579 479 l 321 479 m 321 689 l 476 689 q 735 599 642 689 q 829 344 829 510 q 725 88 829 181 q 458 0 625 0 l 250 0 q 125 36 160 0 q 90 163 90 72 l 90 851 q 125 978 90 942 q 250 1014 160 1014 l 611 1014 q 776 906 776 1014 q 611 799 776 799 l 321 799 l 321 689 z "},"В":{"ha":878,"x_min":90,"x_max":836,"o":"m 247 0 q 125 30 160 0 q 90 146 90 60 l 90 851 q 125 978 90 942 q 250 1014 160 1014 l 439 1014 q 672 957 576 1014 q 789 761 789 889 q 669 538 789 596 l 669 533 q 797 452 758 506 q 836 306 836 399 q 729 71 836 151 q 475 0 635 0 l 247 0 m 321 438 l 321 199 l 436 199 q 546 218 510 199 q 593 313 593 244 q 547 418 593 392 q 432 438 514 438 l 321 438 m 321 817 l 321 618 l 421 618 q 517 635 489 618 q 556 718 556 657 q 421 817 556 817 l 321 817 z "},"Г":{"ha":690,"x_min":90,"x_max":674,"o":"m 90 151 l 90 851 q 125 978 90 942 q 250 1014 160 1014 l 510 1014 q 674 906 674 1014 q 510 799 674 799 l 321 799 l 321 151 q 206 -12 321 -12 q 90 151 90 -12 z "},"Д":{"ha":1038,"x_min":13,"x_max":1013,"o":"m 807 0 l 218 0 l 218 -90 q 190 -165 218 -137 q 114 -193 163 -193 q 40 -165 67 -193 q 13 -90 13 -137 l 13 94 q 103 193 13 193 q 144 236 129 193 q 158 385 158 279 l 158 757 q 225 944 158 875 q 410 1014 292 1014 l 764 1014 q 868 967 838 1014 q 892 850 892 929 l 892 193 q 1013 94 1013 193 l 1013 -90 q 910 -193 1013 -193 q 835 -165 863 -193 q 807 -90 807 -137 l 807 0 m 333 193 l 660 193 l 660 810 l 415 810 q 364 754 364 810 l 364 385 q 333 193 364 279 z "},"Е":{"ha":719,"x_min":90,"x_max":681,"o":"m 510 1014 q 674 906 674 1014 q 510 799 674 799 l 321 799 l 321 618 l 483 618 q 647 511 647 618 q 483 404 647 404 l 321 404 l 321 214 l 517 214 q 681 107 681 214 q 517 0 681 0 l 247 0 q 125 30 160 0 q 90 146 90 60 l 90 851 q 125 978 90 942 q 250 1014 160 1014 l 510 1014 z "},"Ж":{"ha":1315,"x_min":0,"x_max":1315,"o":"m 550 414 l 531 429 l 231 68 q 107 -12 164 -12 q 33 20 65 -12 q 0 94 0 53 q 58 208 0 140 l 363 564 l 135 789 q 76 847 79 843 q 43 918 43 886 q 78 994 43 961 q 157 1026 114 1026 q 283 944 203 1026 l 550 671 l 550 863 q 657 1026 550 1026 q 747 974 722 1026 q 764 863 764 938 l 764 671 l 1031 944 q 1158 1026 1111 1026 q 1238 994 1203 1026 q 1272 918 1272 963 q 1239 847 1272 886 q 1181 789 1236 843 l 953 564 l 1257 208 q 1315 94 1315 140 q 1283 20 1315 53 q 1208 -12 1250 -12 q 1083 68 1150 -12 l 785 429 l 764 414 l 764 151 q 657 -12 764 -12 q 550 151 550 -12 l 550 414 z "},"З":{"ha":806,"x_min":21,"x_max":763,"o":"m 600 542 l 600 538 q 763 306 763 472 q 364 -12 763 -12 q 150 17 238 -12 q 21 160 21 60 q 117 247 21 247 q 197 231 157 247 q 272 201 257 206 q 368 193 304 193 q 522 313 522 193 q 486 400 522 364 q 406 435 458 429 q 317 436 393 436 q 172 532 172 436 q 213 603 172 575 q 293 628 243 624 q 379 629 303 629 q 467 650 432 629 q 510 725 510 676 q 371 835 510 835 q 259 815 328 835 q 156 796 190 796 q 60 883 60 796 q 86 940 60 913 q 376 1026 168 1026 q 738 747 738 1026 q 600 542 738 601 z "},"И":{"ha":1067,"x_min":90,"x_max":976,"o":"m 746 618 l 328 65 q 194 -12 269 -12 q 90 125 90 -12 l 90 863 q 206 1026 90 1026 q 321 863 321 1026 l 321 388 l 747 951 q 869 1026 804 1026 q 976 871 976 1026 l 976 151 q 861 -12 976 -12 q 746 151 746 -12 l 746 618 z "},"Й":{"ha":1067,"x_min":90,"x_max":976,"o":"m 746 618 l 328 65 q 194 -12 269 -12 q 90 125 90 -12 l 90 863 q 206 1026 90 1026 q 321 863 321 1026 l 321 388 l 747 951 q 869 1026 804 1026 q 976 871 976 1026 l 976 151 q 861 -12 976 -12 q 746 151 746 -12 l 746 618 m 533 1076 q 364 1128 429 1076 q 299 1242 299 1179 q 372 1321 299 1321 q 444 1274 414 1321 q 533 1228 475 1228 q 622 1274 592 1228 q 693 1321 653 1321 q 768 1242 768 1321 q 686 1115 768 1163 q 533 1076 618 1076 z "},"К":{"ha":886,"x_min":90,"x_max":899,"o":"m 90 151 l 90 863 q 206 1026 90 1026 q 321 863 321 1026 l 321 642 l 615 944 q 742 1026 694 1026 q 821 994 786 1026 q 856 918 856 963 q 822 847 856 886 q 764 789 821 846 l 531 557 l 840 208 q 899 94 899 143 q 866 20 899 53 q 792 -12 833 -12 q 667 68 736 -12 l 361 424 l 321 390 l 321 151 q 206 -12 321 -12 q 90 151 90 -12 z "},"Л":{"ha":1058,"x_min":51,"x_max":968,"o":"m 738 822 l 490 822 q 439 760 439 822 l 439 193 q 235 -12 439 -12 q 51 94 51 -12 q 86 179 51 158 q 160 193 107 192 q 221 208 207 194 q 235 269 235 222 l 235 760 q 289 967 235 908 q 490 1026 343 1026 l 853 1026 q 968 863 968 1026 l 968 151 q 853 -12 968 -12 q 756 36 781 -12 q 738 151 738 71 l 738 822 z "},"М":{"ha":1246,"x_min":21,"x_max":1225,"o":"m 621 321 l 626 321 l 760 890 q 819 988 774 950 q 925 1026 864 1026 q 1044 982 994 1026 q 1106 868 1094 938 l 1217 176 q 1225 99 1225 125 q 1121 -12 1225 -12 q 1032 35 1060 -12 q 1001 136 1013 65 l 914 690 l 911 690 l 781 178 q 733 64 760 99 q 624 15 694 15 q 514 64 553 15 q 467 178 488 97 l 335 690 l 332 690 l 246 136 q 215 33 235 64 q 125 -12 186 -12 q 21 99 21 -12 q 31 176 21 115 l 142 868 q 202 982 153 938 q 321 1026 251 1026 q 427 989 383 1026 q 486 890 471 951 l 621 321 z "},"Н":{"ha":1067,"x_min":90,"x_max":976,"o":"m 321 410 l 321 151 q 206 -12 321 -12 q 90 151 90 -12 l 90 863 q 206 1026 90 1026 q 321 863 321 1026 l 321 624 l 746 624 l 746 863 q 861 1026 746 1026 q 976 863 976 1026 l 976 151 q 861 -12 976 -12 q 746 151 746 -12 l 746 410 l 321 410 z "},"О":{"ha":1054,"x_min":42,"x_max":1013,"o":"m 42 506 q 169 876 42 733 q 526 1026 301 1026 q 885 878 753 1026 q 1013 506 1013 735 q 885 135 1013 278 q 526 -12 751 -12 q 169 136 301 -12 q 42 506 42 278 m 286 503 q 343 296 286 378 q 526 200 407 200 q 711 294 646 200 q 768 503 768 378 q 714 715 768 632 q 526 814 649 814 q 340 715 404 814 q 286 503 286 632 z "},"П":{"ha":1067,"x_min":90,"x_max":976,"o":"m 321 810 l 321 151 q 206 -12 321 -12 q 90 151 90 -12 l 90 850 q 249 1014 90 1014 l 818 1014 q 976 850 976 1014 l 976 151 q 861 -12 976 -12 q 746 151 746 -12 l 746 810 l 321 810 z "},"Р":{"ha":864,"x_min":90,"x_max":829,"o":"m 321 535 l 421 535 q 579 669 579 535 q 421 801 579 801 l 321 801 l 321 535 m 206 -12 q 90 151 90 -12 l 90 851 q 125 978 90 942 q 250 1014 160 1014 l 458 1014 q 725 926 626 1014 q 829 669 829 835 q 735 415 829 506 q 476 325 640 325 l 321 325 l 321 151 q 206 -12 321 -12 z "},"С":{"ha":883,"x_min":39,"x_max":854,"o":"m 535 -25 q 169 128 306 -25 q 39 506 39 274 q 174 883 39 732 q 538 1040 313 1040 q 690 1018 618 1040 q 819 939 781 990 q 842 879 842 910 q 813 808 842 839 q 743 776 783 776 q 653 797 706 776 q 539 818 600 818 q 347 718 414 818 q 289 500 289 632 q 351 289 289 371 q 546 197 419 197 q 669 222 601 197 q 761 247 738 247 q 827 216 800 247 q 854 146 854 185 q 832 82 854 113 q 535 -25 754 -25 z "},"Т":{"ha":696,"x_min":-17,"x_max":713,"o":"m 232 799 q 76 806 107 799 q -17 906 -17 825 q 147 1014 -17 1014 l 549 1014 q 713 906 713 1014 q 619 806 713 825 q 464 799 589 799 l 464 151 q 349 -12 464 -12 q 232 151 232 -12 l 232 799 z "},"У":{"ha":814,"x_min":4,"x_max":826,"o":"m 328 -200 q 225 -90 225 -200 q 238 -24 225 -54 l 303 139 l 17 847 q 4 913 4 878 q 33 996 4 964 q 114 1028 63 1028 q 219 928 179 1028 l 418 436 l 424 436 l 606 919 q 644 994 626 974 q 719 1028 672 1028 q 826 921 826 1028 q 811 842 826 881 l 442 -106 q 401 -175 422 -154 q 328 -200 375 -200 z "},"Ф":{"ha":1193,"x_min":35,"x_max":1158,"o":"m 596 -12 q 497 46 519 -12 q 483 169 483 79 q 258 194 326 169 q 94 319 153 233 q 35 518 35 406 q 92 716 35 631 q 256 840 150 801 q 483 865 322 865 q 500 978 483 944 q 596 1026 525 1026 q 693 978 668 1026 q 710 865 710 944 q 938 840 869 865 q 1101 716 1043 801 q 1158 518 1158 631 q 1099 319 1158 406 q 935 194 1040 233 q 710 169 867 169 q 696 46 710 79 q 596 -12 672 -12 m 706 679 l 706 358 l 769 358 q 924 518 924 358 q 769 679 924 679 l 706 679 m 488 358 l 488 679 l 424 679 q 269 518 269 679 q 424 358 269 358 l 488 358 z "},"Х":{"ha":825,"x_min":-19,"x_max":846,"o":"m 85 -12 q 13 18 46 -12 q -19 88 -19 49 q 32 204 -19 135 l 278 538 l 93 807 q 42 921 42 882 q 74 997 42 968 q 153 1026 106 1026 q 272 938 214 1026 l 413 725 l 560 940 q 683 1026 618 1026 q 754 997 724 1026 q 785 926 785 967 q 732 807 785 883 l 546 538 l 793 203 q 846 86 846 132 q 814 17 846 46 q 740 -12 782 -12 q 615 72 675 -12 l 410 361 l 206 74 q 85 -12 144 -12 z "},"Ц":{"ha":1097,"x_min":100,"x_max":1083,"o":"m 331 193 l 733 193 l 733 863 q 849 1026 733 1026 q 964 863 964 1026 l 964 193 q 1083 94 1083 193 l 1083 -90 q 981 -193 1083 -193 q 906 -165 933 -193 q 878 -90 878 -137 l 878 0 l 258 0 q 100 164 100 0 l 100 863 q 215 1026 100 1026 q 331 863 331 1026 l 331 193 z "},"Ч":{"ha":857,"x_min":47,"x_max":767,"o":"m 419 547 l 536 547 l 536 864 q 651 1026 536 1026 q 767 864 767 1026 l 767 151 q 651 -12 767 -12 q 536 151 536 -12 l 536 342 l 381 342 q 133 430 218 342 q 47 682 47 518 l 47 864 q 163 1026 47 1026 q 278 864 278 1026 l 278 682 q 308 574 278 601 q 419 547 338 547 z "},"Ш":{"ha":1386,"x_min":90,"x_max":1296,"o":"m 1065 193 l 1065 863 q 1181 1026 1065 1026 q 1296 863 1296 1026 l 1296 164 q 1138 0 1296 0 l 249 0 q 90 164 90 0 l 90 863 q 206 1026 90 1026 q 321 863 321 1026 l 321 193 l 590 193 l 590 863 q 606 972 590 938 q 693 1026 629 1026 q 781 972 757 1026 q 796 863 796 938 l 796 193 l 1065 193 z "},"Щ":{"ha":1429,"x_min":90,"x_max":1417,"o":"m 1065 193 l 1065 863 q 1181 1026 1065 1026 q 1296 863 1296 1026 l 1296 193 l 1314 193 q 1417 94 1417 193 l 1417 -90 q 1389 -165 1417 -137 q 1314 -193 1361 -193 q 1239 -165 1267 -193 q 1211 -90 1211 -137 l 1211 0 l 249 0 q 90 164 90 0 l 90 863 q 206 1026 90 1026 q 321 863 321 1026 l 321 193 l 590 193 l 590 863 q 606 972 590 938 q 693 1026 629 1026 q 781 972 757 1026 q 796 863 796 938 l 796 193 l 1065 193 z "},"Ъ":{"ha":1021,"x_min":13,"x_max":985,"o":"m 478 479 l 478 213 l 578 213 q 736 344 736 213 q 578 479 736 479 l 478 479 m 247 808 l 115 808 q 13 911 13 808 q 115 1014 13 1014 l 381 1014 q 460 981 443 1014 q 478 863 478 949 l 478 689 l 633 689 q 892 599 799 689 q 985 344 985 508 q 883 90 985 181 q 615 0 781 0 l 407 0 q 282 36 317 0 q 247 163 247 72 l 247 808 z "},"Ы":{"ha":1243,"x_min":90,"x_max":1154,"o":"m 321 479 l 321 213 l 394 213 q 553 344 553 213 q 394 479 553 479 l 321 479 m 321 689 l 442 689 q 701 599 607 689 q 794 344 794 510 q 690 88 794 181 q 424 0 590 0 l 250 0 q 125 36 160 0 q 90 163 90 72 l 90 863 q 206 1026 90 1026 q 321 863 321 1026 l 321 689 m 1154 151 q 1038 -12 1154 -12 q 922 151 922 -12 l 922 863 q 1038 1026 922 1026 q 1154 863 1154 1026 l 1154 151 z "},"Ь":{"ha":864,"x_min":90,"x_max":829,"o":"m 321 479 l 321 213 l 421 213 q 579 344 579 213 q 421 479 579 479 l 321 479 m 321 689 l 476 689 q 735 599 642 689 q 829 344 829 510 q 725 88 829 181 q 458 0 625 0 l 250 0 q 125 36 160 0 q 90 163 90 72 l 90 863 q 206 1026 90 1026 q 321 863 321 1026 l 321 689 z "},"Э":{"ha":860,"x_min":29,"x_max":825,"o":"m 200 525 q 310 617 200 617 l 575 617 q 497 758 564 707 q 336 810 429 810 q 225 790 276 810 q 138 769 174 769 q 69 799 97 769 q 42 869 42 829 q 64 928 42 899 q 338 1026 139 1026 q 694 875 560 1026 q 825 506 825 729 q 699 136 825 278 q 340 -12 565 -12 q 214 1 271 -12 q 94 51 144 18 q 29 154 29 96 q 56 224 29 193 q 119 254 82 254 q 210 229 143 254 q 329 204 276 204 q 497 265 431 204 q 575 428 564 326 l 308 428 q 200 525 200 428 z "},"Ю":{"ha":1349,"x_min":90,"x_max":1311,"o":"m 321 619 l 472 619 q 597 911 496 804 q 888 1026 707 1026 q 1214 867 1103 1026 q 1311 506 1311 729 q 1060 22 1311 132 q 888 -12 981 -12 q 586 115 697 -12 q 468 426 485 231 l 321 426 l 321 151 q 206 -12 321 -12 q 90 151 90 -12 l 90 863 q 206 1026 90 1026 q 321 863 321 1026 l 321 619 m 889 831 q 767 761 814 831 q 714 624 728 707 q 706 508 706 572 q 740 303 706 389 q 889 183 788 183 q 1038 303 990 183 q 1071 508 1071 388 q 1020 749 1071 667 q 889 831 969 831 z "},"Я":{"ha":851,"x_min":86,"x_max":819,"o":"m 589 554 l 589 801 l 479 801 q 335 681 335 801 q 482 554 335 554 l 589 554 m 819 851 l 819 151 q 704 -12 819 -12 q 589 151 589 -12 l 589 401 l 319 63 q 197 -12 260 -12 q 119 16 151 -12 q 86 89 86 44 q 154 221 86 144 l 336 424 q 160 514 225 442 q 94 697 94 586 q 194 926 94 838 q 481 1014 293 1014 l 660 1014 q 785 978 751 1014 q 819 851 819 943 z "},"а":{"ha":858,"x_min":33,"x_max":781,"o":"m 265 382 q 300 257 265 308 q 411 199 340 199 q 521 257 482 199 q 554 382 554 308 q 521 506 554 456 q 411 563 482 563 q 301 506 342 563 q 265 382 265 454 m 563 68 q 374 -17 493 -17 q 124 108 222 -17 q 33 379 33 224 q 128 653 33 536 q 382 778 228 778 q 563 697 494 778 q 669 768 601 768 q 781 606 781 768 l 781 154 q 669 -10 781 -10 q 563 68 596 -10 z "},"б":{"ha":808,"x_min":50,"x_max":772,"o":"m 50 381 l 50 492 q 254 983 50 924 q 497 1001 315 1001 q 587 1012 572 1001 q 601 1038 601 1022 q 633 1072 601 1058 q 685 1083 660 1083 q 758 968 758 1083 q 715 886 758 921 q 628 849 681 858 q 550 842 593 842 l 403 842 q 290 785 329 842 q 264 681 264 744 l 268 681 q 446 735 338 735 q 694 629 608 735 q 772 365 772 532 q 678 83 772 188 q 407 -21 583 -21 q 138 94 231 -21 q 50 381 50 201 m 264 368 q 407 175 264 175 q 509 217 468 175 q 550 368 550 260 q 407 550 550 550 q 297 493 335 550 q 264 368 264 443 z "},"в":{"ha":792,"x_min":76,"x_max":749,"o":"m 300 624 l 300 453 l 390 453 q 469 467 444 453 q 503 538 503 486 q 382 624 503 624 l 300 624 m 204 -8 q 76 138 76 -8 l 76 624 q 204 768 76 768 l 406 768 q 629 728 557 768 q 726 538 726 675 q 633 390 726 440 q 749 222 749 329 q 644 31 749 83 q 415 -8 569 -8 l 204 -8 m 300 308 l 300 138 l 390 138 q 518 222 518 138 q 478 296 518 276 q 390 308 451 308 l 300 308 z "},"г":{"ha":544,"x_min":76,"x_max":563,"o":"m 76 154 l 76 606 q 189 768 76 768 l 421 768 q 563 672 563 768 q 421 576 563 576 l 300 576 l 300 154 q 189 -10 300 -10 q 76 154 76 -10 z "},"д":{"ha":865,"x_min":-12,"x_max":857,"o":"m 297 167 l 538 167 l 538 589 l 371 589 q 319 538 319 589 l 319 257 q 297 167 319 214 m 678 0 l 167 0 q 164 -112 167 -97 q 92 -179 151 -179 q -12 -69 -12 -179 l -12 74 q 21 160 -12 144 q 81 172 50 167 q 114 257 114 188 l 114 540 q 181 719 114 665 q 369 768 242 768 l 649 768 q 742 721 717 768 q 760 615 760 688 l 760 167 q 857 71 857 167 l 857 -69 q 753 -179 857 -179 q 682 -111 694 -179 q 678 0 678 -93 z "},"е":{"ha":806,"x_min":36,"x_max":781,"o":"m 267 317 q 321 217 274 251 q 436 182 368 182 q 574 219 493 182 q 674 256 654 256 q 763 168 763 256 q 738 101 763 135 q 596 8 693 40 q 425 -19 514 -19 q 147 95 258 -19 q 36 378 36 210 q 142 663 36 544 q 414 781 249 781 q 563 750 496 781 q 719 618 658 706 q 781 428 781 531 q 740 343 781 372 q 649 317 706 317 l 267 317 m 264 464 l 560 464 q 515 560 556 522 q 415 597 474 597 q 315 560 356 597 q 264 464 275 524 z "},"ж":{"ha":1064,"x_min":-4,"x_max":1068,"o":"m 424 288 l 392 313 l 210 57 q 97 -10 163 -10 q 26 15 57 -10 q -4 79 -4 40 q 39 189 -4 136 l 239 435 l 94 575 q 40 683 40 628 q 66 744 40 721 q 129 768 92 768 q 242 708 186 768 l 424 511 q 429 671 424 642 q 532 768 449 768 q 635 671 615 768 q 640 511 640 642 l 822 708 q 933 768 878 768 q 997 744 971 768 q 1024 683 1024 721 q 969 575 1024 628 l 824 435 l 1025 189 q 1068 79 1068 136 q 1038 15 1068 40 q 967 -10 1007 -10 q 854 57 901 -10 l 672 313 l 640 288 l 640 154 q 532 -10 640 -10 q 424 154 424 -10 l 424 288 z "},"з":{"ha":728,"x_min":33,"x_max":682,"o":"m 193 379 q 300 453 193 453 q 397 461 375 453 q 440 538 440 476 q 404 621 440 599 q 315 636 378 636 q 217 618 267 636 q 135 599 163 599 q 53 675 53 599 q 332 782 53 782 q 564 738 488 782 q 664 538 664 681 q 571 390 664 440 q 682 222 682 331 q 332 -22 682 -22 q 33 93 33 -22 q 111 164 33 164 q 197 143 135 164 q 332 122 260 122 q 451 222 451 122 q 429 288 451 268 q 342 308 407 307 q 242 315 261 310 q 193 379 193 328 z "},"и":{"ha":840,"x_min":76,"x_max":792,"o":"m 300 356 l 569 606 q 586 718 569 683 q 681 768 611 768 q 775 718 750 768 q 792 606 792 683 l 792 154 q 775 42 792 76 q 681 -10 750 -10 q 586 42 611 -10 q 569 154 569 76 l 569 374 l 300 154 q 283 42 300 78 q 190 -10 258 -10 q 76 154 76 -10 l 76 606 q 94 717 76 681 q 190 768 121 768 q 283 718 258 768 q 300 606 300 683 l 300 356 z "},"й":{"ha":840,"x_min":76,"x_max":792,"o":"m 76 154 l 76 606 q 94 717 76 681 q 190 768 121 768 q 283 718 258 768 q 300 606 300 683 l 300 356 l 569 699 q 681 768 624 768 q 775 718 750 768 q 792 606 792 683 l 792 154 q 775 42 792 76 q 681 -10 750 -10 q 586 42 611 -10 q 569 154 569 76 l 569 383 l 300 58 q 190 -10 243 -10 q 76 154 76 -10 m 435 833 q 279 882 340 833 q 222 981 222 926 q 289 1051 222 1051 q 355 1010 326 1051 q 435 968 383 968 q 515 1010 489 968 q 578 1051 542 1051 q 646 981 646 1051 q 572 868 646 910 q 435 833 511 833 z "},"к":{"ha":739,"x_min":76,"x_max":747,"o":"m 333 313 l 300 288 l 300 154 q 189 -10 300 -10 q 76 154 76 -10 l 76 604 q 189 768 76 768 q 293 672 274 768 q 300 511 300 643 l 492 708 q 607 769 551 769 q 674 746 646 769 q 701 683 701 722 q 644 575 701 628 l 493 435 l 703 189 q 747 79 747 136 q 715 15 747 39 q 642 -10 682 -10 q 525 57 575 -10 l 333 313 z "},"л":{"ha":843,"x_min":-8,"x_max":765,"o":"m 543 576 l 376 576 q 325 525 325 576 l 325 169 q 278 38 325 85 q 146 -10 231 -10 q 43 0 71 -10 q -8 79 -8 19 q 29 156 -8 138 q 119 169 56 169 l 119 524 q 181 715 119 661 q 376 768 238 768 l 654 768 q 747 721 722 768 q 765 615 765 688 l 765 154 q 654 -10 765 -10 q 561 42 588 -10 q 543 154 543 79 l 543 576 z "},"м":{"ha":1083,"x_min":-4,"x_max":1088,"o":"m 538 328 l 546 328 l 665 658 q 825 768 706 768 q 961 651 935 768 l 1075 154 q 1088 65 1088 100 q 1047 3 1088 28 q 972 -18 1013 -18 q 861 106 886 -18 l 788 460 l 650 90 q 542 -18 610 -18 q 433 90 474 -18 l 297 460 l 222 106 q 111 -18 196 -18 q 36 3 71 -18 q -4 65 -4 28 q 8 154 -4 100 l 122 651 q 258 768 149 768 q 418 658 378 768 l 538 328 z "},"н":{"ha":840,"x_min":76,"x_max":768,"o":"m 300 308 l 300 154 q 190 -10 300 -10 q 76 154 76 -10 l 76 606 q 190 768 76 768 q 300 606 300 768 l 300 467 l 546 467 l 546 606 q 657 768 546 768 q 768 606 768 768 l 768 154 q 657 -10 768 -10 q 546 154 546 -10 l 546 308 l 300 308 z "},"о":{"ha":832,"x_min":36,"x_max":796,"o":"m 36 379 q 142 666 36 550 q 417 782 249 782 q 692 667 588 782 q 796 379 796 551 q 693 94 796 208 q 417 -22 586 -22 q 140 96 249 -22 q 36 379 36 210 m 268 382 q 303 249 268 306 q 417 182 344 182 q 531 249 489 182 q 565 382 565 306 q 529 513 565 457 q 417 576 488 576 q 303 513 344 576 q 268 382 268 458 z "},"п":{"ha":843,"x_min":76,"x_max":765,"o":"m 543 576 l 300 576 l 300 154 q 189 -10 300 -10 q 76 154 76 -10 l 76 615 q 96 722 76 688 q 189 768 122 768 l 654 768 q 747 721 722 768 q 765 615 765 688 l 765 154 q 654 -10 765 -10 q 543 154 543 -10 l 543 576 z "},"р":{"ha":858,"x_min":76,"x_max":824,"o":"m 303 42 l 297 42 l 297 -153 q 190 -314 297 -314 q 76 -150 76 -314 l 76 606 q 190 768 76 768 q 297 697 257 768 q 482 774 365 774 q 735 651 638 774 q 824 379 824 538 q 769 163 824 261 q 613 8 714 58 q 479 -24 549 -24 q 303 42 378 -24 m 297 365 q 332 240 297 289 q 446 185 372 185 q 560 246 519 185 q 594 376 594 300 q 558 504 594 451 q 446 565 518 565 q 341 524 385 565 q 297 365 297 483 z "},"с":{"ha":704,"x_min":36,"x_max":674,"o":"m 36 379 q 142 667 36 556 q 422 779 247 779 q 582 751 514 779 q 674 635 674 713 q 647 567 674 594 q 581 539 621 539 q 512 556 554 539 q 422 574 469 574 q 304 515 346 574 q 267 383 267 463 q 306 250 267 300 q 431 194 350 194 q 518 211 478 194 q 585 228 558 228 q 648 199 624 228 q 672 131 672 171 q 578 15 672 63 q 408 -18 510 -18 q 136 97 239 -18 q 36 379 36 208 z "},"т":{"ha":671,"x_min":-12,"x_max":683,"o":"m 224 576 l 128 576 q -12 672 -12 576 q 128 768 -12 768 l 542 768 q 683 672 683 768 q 542 576 683 576 l 446 576 l 446 154 q 335 -10 446 -10 q 224 154 224 -10 l 224 576 z "},"у":{"ha":686,"x_min":0,"x_max":699,"o":"m 110 768 q 185 736 158 768 q 224 660 203 715 l 351 321 l 489 679 q 588 768 524 768 q 699 661 699 768 q 681 583 699 626 l 338 -229 q 239 -321 299 -321 q 158 -292 189 -321 q 128 -212 128 -262 q 147 -136 128 -179 l 239 65 l 13 594 q 0 657 0 624 q 31 736 0 704 q 110 768 63 768 z "},"ф":{"ha":1172,"x_min":36,"x_max":1136,"o":"m 689 589 l 689 179 l 728 179 q 867 238 818 179 q 913 383 913 292 q 867 529 913 475 q 728 589 817 589 l 689 589 m 693 0 l 693 -158 q 586 -314 693 -314 q 479 -158 479 -314 l 479 0 q 268 28 339 0 q 97 167 158 71 q 36 383 36 263 q 96 601 36 507 q 268 740 156 696 q 479 768 339 768 l 479 933 q 586 1088 479 1088 q 693 933 693 1088 l 693 768 q 903 740 832 768 q 1076 601 1017 696 q 1136 383 1136 507 q 1076 168 1136 261 q 903 28 1014 71 q 693 0 832 0 m 483 179 l 483 589 l 444 589 q 308 531 357 589 q 260 383 260 474 q 308 236 260 293 q 444 179 356 179 l 483 179 z "},"х":{"ha":724,"x_min":-4,"x_max":728,"o":"m 361 239 l 201 49 q 104 -10 153 -10 q 28 24 60 -10 q -4 101 -4 57 q 43 200 -4 147 l 229 406 l 72 565 q 31 656 31 608 q 61 735 31 700 q 135 769 92 769 q 228 722 186 769 l 365 564 l 490 717 q 582 769 533 769 q 663 738 629 769 q 697 658 697 706 q 647 563 697 615 l 499 404 l 675 206 q 714 156 706 171 q 728 94 728 131 q 698 21 728 51 q 625 -10 668 -10 q 522 49 572 -10 l 361 239 z "},"ц":{"ha":867,"x_min":82,"x_max":867,"o":"m 304 167 l 547 167 l 547 604 q 658 768 547 768 q 769 604 769 768 l 769 167 q 867 71 867 167 l 867 -69 q 763 -179 867 -179 q 692 -111 704 -179 q 688 0 688 -93 l 221 0 q 117 51 154 0 q 82 167 82 99 l 82 604 q 193 768 82 768 q 304 604 304 768 l 304 167 z "},"ч":{"ha":749,"x_min":39,"x_max":671,"o":"m 361 453 l 449 453 l 449 624 q 560 768 449 768 q 671 624 671 768 l 671 135 q 560 -11 671 -11 q 474 35 503 -11 q 449 135 449 74 l 449 296 q 271 300 308 296 q 104 353 158 310 q 39 526 39 404 l 39 624 q 150 768 39 768 q 261 624 261 768 l 261 526 q 289 464 261 479 q 361 453 310 453 z "},"ш":{"ha":1294,"x_min":82,"x_max":1185,"o":"m 304 158 l 522 158 l 522 606 q 633 768 522 768 q 744 606 744 768 l 744 158 l 963 158 l 963 604 q 1074 768 963 768 q 1185 604 1185 768 l 1185 158 q 1047 0 1185 0 l 219 0 q 115 47 151 0 q 82 158 82 89 l 82 604 q 193 768 82 768 q 304 604 304 768 l 304 158 z "},"щ":{"ha":1282,"x_min":82,"x_max":1282,"o":"m 304 158 l 522 158 l 522 606 q 633 768 522 768 q 744 606 744 768 l 744 158 l 963 158 l 963 604 q 1074 768 963 768 q 1185 604 1185 768 l 1185 158 q 1282 71 1282 158 l 1282 -69 q 1178 -179 1282 -179 q 1107 -111 1119 -179 q 1103 0 1103 -93 l 221 0 q 117 47 154 0 q 82 158 82 90 l 82 604 q 193 768 82 768 q 304 604 304 768 l 304 158 z "},"ъ":{"ha":888,"x_min":13,"x_max":851,"o":"m 403 463 q 644 454 594 463 q 835 333 797 431 q 851 231 851 290 q 747 39 851 93 q 518 0 672 0 l 307 0 q 179 146 179 0 l 179 601 q 71 607 92 601 q 13 683 13 622 q 128 768 13 768 l 290 768 q 385 718 360 768 q 403 610 403 683 l 403 463 m 403 317 l 403 146 l 493 146 q 621 231 621 146 q 581 304 621 285 q 493 317 554 317 l 403 317 z "},"ы":{"ha":1142,"x_min":76,"x_max":1065,"o":"m 300 463 q 540 454 494 463 q 726 329 692 431 q 740 231 740 288 q 642 39 740 92 q 415 0 568 0 l 204 0 q 76 146 76 0 l 76 624 q 189 768 76 768 q 300 624 300 768 l 300 463 m 300 317 l 300 146 l 390 146 q 518 231 518 146 q 478 304 518 285 q 390 317 451 317 l 300 317 m 1065 606 l 1065 146 q 1046 42 1065 75 q 954 0 1021 0 q 863 42 888 0 q 843 146 843 75 l 843 606 q 954 768 843 768 q 1065 606 1065 768 z "},"ь":{"ha":785,"x_min":76,"x_max":749,"o":"m 300 463 q 542 454 492 463 q 732 333 694 431 q 749 231 749 290 q 644 39 749 92 q 415 0 569 0 l 204 0 q 76 146 76 0 l 76 624 q 189 768 76 768 q 300 624 300 768 l 300 463 m 300 317 l 300 146 l 390 146 q 518 231 518 146 q 478 304 518 285 q 390 317 451 317 l 300 317 z "},"э":{"ha":704,"x_min":31,"x_max":668,"o":"m 668 385 q 569 100 668 213 q 296 -18 467 -18 q 106 28 179 -18 q 32 131 32 74 q 57 199 32 169 q 119 228 82 228 q 186 211 146 228 q 274 194 226 194 q 429 313 397 194 l 288 313 q 179 385 179 313 q 288 458 179 458 l 428 458 q 282 574 392 574 q 193 556 233 574 q 124 539 153 539 q 57 567 83 539 q 31 635 31 594 q 124 750 31 713 q 282 779 192 779 q 563 671 458 779 q 668 385 668 563 z "},"ю":{"ha":1164,"x_min":76,"x_max":1121,"o":"m 407 313 l 300 313 l 300 151 q 189 -12 300 -12 q 76 151 76 -12 l 76 608 q 189 771 76 771 q 300 608 300 771 l 300 458 l 408 458 q 522 693 428 604 q 761 782 615 782 q 1029 663 931 782 q 1121 379 1121 553 q 1028 100 1121 207 q 761 -12 931 -12 q 519 76 614 -12 q 407 313 425 165 m 633 382 q 761 193 633 193 q 890 382 890 193 q 864 510 890 458 q 761 576 831 576 q 658 510 692 576 q 633 382 633 458 z "},"я":{"ha":800,"x_min":51,"x_max":724,"o":"m 500 307 l 450 307 l 247 43 q 207 3 224 13 q 150 -10 186 -10 q 78 19 106 -10 q 51 71 51 47 q 86 158 51 118 l 228 321 q 56 538 56 357 q 375 768 56 768 l 596 768 q 700 733 672 768 q 724 624 724 703 l 724 136 q 611 -10 724 -10 q 525 36 554 -10 q 500 136 500 75 l 500 307 m 500 451 l 500 624 l 410 624 q 282 538 282 624 q 410 451 282 451 l 500 451 z "}}}
